<?xml version="1.0" encoding="utf-8"?>
<!-- Generator: Adobe Illustrator 19.0.0, SVG Export Plug-In . SVG Version: 6.00 Build 0)  -->
<svg version="1.1" id="Layer_1" xmlns="http://www.w3.org/2000/svg" xmlns:xlink="http://www.w3.org/1999/xlink" x="0px" y="0px"
	 width="280px" height="280px" viewBox="-59 61 280 280" style="enable-background:new -59 61 280 280;" xml:space="preserve">
<style type="text/css">
	.st0{fill:none;stroke:#FFFFFF;stroke-width:2.9459;stroke-linecap:round;stroke-linejoin:round;stroke-miterlimit:10;}
	.st1{fill:#FFFFFF;}
	.st2{fill-rule:evenodd;clip-rule:evenodd;fill:#FFFFFF;}
	.st3{fill:#B16A86;}
	.st4{fill:none;stroke:#B16A86;stroke-width:12;stroke-linecap:round;stroke-linejoin:round;stroke-miterlimit:10;}
	.st5{fill:#DCB5C7;}
	.st6{fill-rule:evenodd;clip-rule:evenodd;fill:#DCB5C7;}
</style>
<path class="st0" d="M25.3,265.5C7.7,249.6-3.3,226.6-3.3,201"/>
<path class="st0" d="M165.2,201c0,25.4-10.9,48.3-28.2,64.2"/>
<path class="st1" d="M49.1,265.6c-0.1-0.3-0.2-0.7-0.4-1.1c-0.2-0.4-0.5-0.8-0.8-1.2c-0.3-0.4-0.7-0.8-1.1-1.2
	c-0.4-0.4-0.9-0.8-1.4-1.1c-1.4-0.8-2.5-1.2-3.5-1c-0.9,0.1-1.7,0.6-2.2,1.5c-0.3,0.5-0.4,0.9-0.4,1.3c0,0.4,0.1,0.9,0.4,1.3
	c0.3,0.5,0.6,0.9,1.1,1.4c0.5,0.5,1.1,1.1,1.7,1.7c0.8,0.7,1.5,1.5,2.1,2.1c0.6,0.7,1,1.4,1.3,2.1c0.3,0.7,0.4,1.4,0.4,2.1
	c-0.1,0.7-0.3,1.5-0.8,2.2c-0.5,0.8-1.1,1.5-1.8,1.9c-0.7,0.4-1.4,0.7-2.3,0.7c-0.8,0.1-1.7,0-2.5-0.3c-0.9-0.3-1.8-0.7-2.7-1.2
	c-1.3-0.8-2.5-1.8-3.5-2.9c-1-1.1-1.7-2.4-2.2-3.8l2.2-1.2c0.1,0.4,0.3,0.9,0.5,1.4c0.3,0.5,0.6,1.1,1,1.6c0.4,0.5,0.9,1.1,1.4,1.6
	c0.5,0.5,1.1,1,1.8,1.4c1.2,0.7,2.4,1.1,3.3,1.1c1,0,1.7-0.5,2.2-1.4c0.3-0.5,0.4-1,0.4-1.4c0-0.5-0.2-1-0.5-1.5
	c-0.3-0.5-0.7-1-1.2-1.6s-1.1-1.2-1.8-1.9c-0.8-0.7-1.4-1.4-1.9-2.1c-0.5-0.6-0.9-1.3-1.2-1.9c-0.2-0.6-0.3-1.2-0.3-1.9
	c0.1-0.6,0.3-1.3,0.7-2c0.5-0.8,1.1-1.5,1.8-1.9s1.5-0.7,2.3-0.8c0.8-0.1,1.7,0,2.6,0.2c0.9,0.2,1.8,0.6,2.7,1.2
	c1.2,0.7,2.1,1.5,2.9,2.5c0.7,0.9,1.3,1.9,1.7,3L49.1,265.6z"/>
<path class="st1" d="M69.4,270.3l-6.8-2l-5.1,17.4l-2.5-0.7l5.1-17.4l-6.8-2l0.6-2.2l16,4.7L69.4,270.3z"/>
<path class="st1" d="M81,286.7c1.2,0,2.2-0.2,3-0.6c0.8-0.4,1.4-1,1.9-1.8s0.8-1.6,1-2.5s0.3-1.9,0.3-2.9l0.2-10.3l2.6,0l-0.2,10.3
	c0,1.4-0.2,2.7-0.5,3.9c-0.3,1.2-0.9,2.3-1.6,3.2c-0.7,0.9-1.6,1.7-2.7,2.2c-1.1,0.5-2.4,0.8-4,0.8c-1.6,0-3-0.3-4.1-0.9
	c-1.1-0.6-2-1.4-2.6-2.3c-0.7-1-1.1-2.1-1.4-3.3c-0.3-1.2-0.4-2.5-0.4-3.8l0.2-10.3l2.6,0L75,278.7c0,1,0.1,2,0.3,2.9
	c0.2,1,0.5,1.8,1,2.5c0.5,0.7,1.1,1.3,1.8,1.8C78.8,286.4,79.8,286.6,81,286.7z"/>
<path class="st1" d="M98.9,287.2l-5.4-19.7l13-3.6l0.6,2.2l-10.5,2.9l1.8,6.6l8.8-2.4l0.6,2.1l-8.8,2.4l2.4,8.8L98.9,287.2z"/>
<path class="st1" d="M119,280.5l-10-17.8l11.7-6.6l1.1,2l-9.5,5.3l3.3,5.9l8-4.5l1.1,1.9l-8,4.5l4.5,8L119,280.5z"/>
<path class="st1" d="M-11.5,164.6l1-1.9l21,2l-1.2,2.3l-6.1-0.6l-3.8,7.3l4,4.7l-1.2,2.3L-11.5,164.6z M1.1,166.1l-9.6-1.1l6.3,7.4
	L1.1,166.1z"/>
<path class="st1" d="M12.5,162.3l-15-12.4L-1,148l13.3,11l6.9-8.4l1.7,1.4L12.5,162.3z"/>
<path class="st1" d="M23.4,149.9l-12.3-15.1l1.9-1.6l10.9,13.4l8.4-6.9l1.4,1.7L23.4,149.9z"/>
<path class="st1" d="M48,115.3l-6.2,2.7l6.9,15.9l-2.3,1l-6.9-15.9l-6.2,2.7l-0.9-2l14.6-6.3L48,115.3z"/>
<path class="st1" d="M69.9,108.2l3.5,19.2l-2.4,0.4l-1.6-8.7l-10.6,1.9l1.6,8.7l-2.4,0.4l-3.5-19.2l2.4-0.4l1.5,8.3l10.6-1.9
	l-1.5-8.3L69.9,108.2z"/>
<path class="st1" d="M91.8,125.6l-0.1,2.2l-13.2-0.5l0.8-19.5l13,0.5l-0.1,2.2l-10.5-0.4l-0.3,6.3l9.1,0.4l-0.1,2.1l-9.1-0.4
	l-0.3,6.7L91.8,125.6z"/>
<path class="st1" d="M117,132.3c-2.3,1.1-4.4,1.3-6.5,0.5c-1.2-0.5-2.3-1.1-3.1-2.1c-0.8-0.9-1.5-1.9-1.9-3.1
	c-0.4-1.1-0.7-2.4-0.7-3.6s0.2-2.5,0.6-3.7c0.5-1.2,1.1-2.3,1.9-3.3c0.8-0.9,1.8-1.7,2.9-2.3c1.1-0.6,2.2-0.9,3.5-1
	c1.2-0.1,2.5,0.1,3.7,0.5c1.8,0.7,3.1,1.6,4,2.7c0.9,1.2,1.4,2.4,1.5,3.9l-2.2,0.6c-0.2-1.3-0.6-2.3-1.3-3.2
	c-0.7-0.9-1.6-1.5-2.8-1.9c-0.9-0.3-1.8-0.5-2.7-0.3c-0.9,0.1-1.7,0.4-2.5,0.9s-1.5,1.1-2.1,1.8s-1.1,1.6-1.4,2.5
	c-0.4,1-0.5,2-0.5,3c0,1,0.2,1.9,0.5,2.8s0.8,1.6,1.4,2.3c0.6,0.7,1.4,1.2,2.3,1.5c2,0.7,4.1,0.4,6.5-0.9l0.9-2.5l-3.9-1.5l0.6-1.8
	l5.9,2.2l-3.4,9.1l-2-0.7L117,132.3z"/>
<path class="st1" d="M128.2,142c-1.1-0.8-2-1.7-2.6-2.8c-0.6-1.1-1-2.3-1.1-3.5c-0.1-1.2-0.1-2.4,0.2-3.7c0.3-1.2,0.8-2.4,1.5-3.4
	c0.7-1.1,1.6-2,2.7-2.7c1.1-0.7,2.2-1.2,3.4-1.5s2.4-0.3,3.6-0.2c1.2,0.2,2.4,0.6,3.5,1.4c1.1,0.8,2,1.7,2.6,2.8
	c0.6,1.1,1,2.3,1.1,3.5c0.1,1.2,0.1,2.5-0.2,3.7s-0.8,2.3-1.5,3.4c-0.7,1.1-1.6,2-2.7,2.7c-1.1,0.7-2.2,1.2-3.4,1.5
	c-1.2,0.3-2.4,0.3-3.6,0.2S129.2,142.8,128.2,142z M128.2,130.1c-0.6,0.8-1,1.7-1.2,2.6c-0.3,0.9-0.3,1.9-0.3,2.8
	c0.1,0.9,0.3,1.8,0.8,2.6c0.4,0.8,1.1,1.5,1.9,2.1c0.9,0.6,1.8,0.9,2.7,1c0.9,0.1,1.8,0,2.7-0.3c0.9-0.3,1.7-0.7,2.5-1.3
	c0.8-0.6,1.4-1.3,1.9-2c0.6-0.8,1-1.7,1.2-2.6c0.3-0.9,0.3-1.9,0.2-2.8c-0.1-0.9-0.4-1.8-0.8-2.6c-0.4-0.8-1.1-1.5-1.9-2
	c-0.9-0.6-1.8-0.9-2.7-1c-0.9-0.1-1.8,0-2.7,0.3s-1.7,0.7-2.5,1.3S128.7,129.3,128.2,130.1z"/>
<path class="st1" d="M143.7,155.7c-0.9-1-1.5-2.1-1.9-3.4c-0.3-1.2-0.4-2.4-0.3-3.6c0.2-1.2,0.5-2.4,1.1-3.5
	c0.6-1.1,1.4-2.1,2.3-2.9c1-0.9,2.1-1.5,3.3-2s2.4-0.7,3.6-0.7s2.4,0.2,3.6,0.7c1.2,0.5,2.2,1.2,3,2.2c0.9,1,1.5,2.1,1.8,3.4
	s0.4,2.4,0.2,3.7s-0.5,2.4-1.1,3.5c-0.6,1.1-1.3,2.1-2.3,2.9c-1,0.9-2.1,1.5-3.3,2c-1.2,0.4-2.4,0.7-3.6,0.7c-1.2,0-2.4-0.2-3.6-0.7
	C145.6,157.4,144.6,156.6,143.7,155.7z M146.7,144.1c-0.7,0.7-1.3,1.4-1.8,2.3s-0.8,1.7-0.9,2.7s-0.1,1.8,0.1,2.7s0.7,1.7,1.4,2.5
	c0.7,0.8,1.5,1.3,2.4,1.6c0.9,0.3,1.8,0.4,2.7,0.4c0.9-0.1,1.8-0.3,2.7-0.7c0.9-0.4,1.7-0.9,2.4-1.5c0.7-0.7,1.3-1.4,1.8-2.3
	s0.8-1.7,0.9-2.7c0.1-0.9,0.1-1.8-0.1-2.7c-0.2-0.9-0.7-1.7-1.3-2.4c-0.7-0.8-1.5-1.3-2.4-1.7s-1.8-0.5-2.7-0.4s-1.8,0.3-2.7,0.6
	C148.2,143,147.4,143.5,146.7,144.1z"/>
<path class="st1" d="M152,165.6l17.2-9.1l3.2,6c0.7,1.4,1.1,2.7,1.2,4c0.1,1.3-0.1,2.5-0.5,3.6c-0.4,1.1-1,2.1-1.9,3
	c-0.9,0.9-1.9,1.7-3.1,2.3c-1.3,0.7-2.6,1.1-3.9,1.3c-1.3,0.2-2.5,0.1-3.6-0.2c-1.1-0.3-2.2-0.9-3.1-1.7c-1-0.8-1.8-1.8-2.4-3.1
	L152,165.6z M167,173.2c1-0.5,1.8-1.1,2.5-1.8c0.7-0.7,1.2-1.5,1.5-2.3s0.4-1.7,0.3-2.7s-0.4-1.9-0.9-2.9l-2-3.8l-13.4,7.1l2,3.8
	c0.5,1,1.2,1.8,1.9,2.4c0.7,0.6,1.6,1,2.4,1.2s1.8,0.2,2.7,0S166.1,173.7,167,173.2z"/>
<path class="st1" d="M210,146.5c-7.1-16.7-17.1-31.6-30-44.5c-12.9-12.9-27.8-23-44.5-30C118.2,64.7,99.9,61,81,61
	c-18.9,0-37.2,3.7-54.5,11C9.8,79.1-5.1,89.1-18,102c-12.9,12.9-23,27.8-30,44.5c-7.3,17.3-11,35.6-11,54.5s3.7,37.2,11,54.5
	c7.1,16.7,17.1,31.6,30,44.5c12.9,12.9,27.8,23,44.5,30c17.3,7.3,35.6,11,54.5,11c18.9,0,37.2-3.7,54.5-11
	c16.7-7.1,31.6-17.1,44.5-30c12.9-12.9,23-27.8,30-44.5c7.3-17.3,11-35.6,11-54.5S217.3,163.8,210,146.5z M206.8,254.1
	c-6.9,16.3-16.7,30.9-29.3,43.4c-12.5,12.5-27.1,22.4-43.4,29.3c-16.8,7.1-34.7,10.7-53.1,10.7s-36.3-3.6-53.1-10.7
	c-16.3-6.9-30.9-16.7-43.4-29.3c-12.5-12.5-22.4-27.1-29.3-43.4c-7.1-16.8-10.7-34.7-10.7-53.1s3.6-36.3,10.7-53.1
	c6.9-16.3,16.7-30.9,29.3-43.4C-3,91.9,11.6,82.1,27.9,75.2C44.7,68.1,62.6,64.5,81,64.5s36.3,3.6,53.1,10.7
	c16.3,6.9,30.9,16.7,43.4,29.3c12.5,12.5,22.4,27.1,29.3,43.4c7.1,16.8,10.7,34.7,10.7,53.1S213.9,237.3,206.8,254.1z"/>
<path class="st1" d="M213.4,200.1c-0.3-7.4-5.2-11.1-9.4-14.3c-3.1-2.4-5.9-4.5-6.4-7.6c-0.6-3.9,1.3-7.4,3.4-11.1
	c2.8-5,5.9-10.6,2.7-17.7c0,0,0,0,0,0c-3.2-6.7-9-8.3-14.2-9.6c-3.8-1-7.1-1.9-8.8-4.6c-2.1-3.3-1.6-7.3-1.1-11.5
	c0.6-5.6,1.4-12-4.3-17.3c0,0,0,0,0,0c-3-2.7-6.4-4-10.8-4c-2.1,0-4.1,0.3-6,0.5c-1.8,0.2-3.4,0.5-5,0.5c-2.1,0-3.6-0.4-4.9-1.4
	c-3.2-2.3-4.3-6.2-5.5-10.2c-1.6-5.5-3.3-11.6-10.6-14.4c0,0,0,0,0,0c-1.7-0.6-3.4-0.9-5.1-0.9c-4.6,0-8.4,2.2-11.7,4.2
	c-2.8,1.6-5.4,3.2-8,3.2h0c-0.5,0-1-0.1-1.5-0.2c-3.8-0.9-6.3-4.1-9-7.4c-3.5-4.4-7.5-9.5-15.3-9.2c0,0,0,0,0,0
	c-7.4,0.3-11.1,5.2-14.3,9.4c-2.4,3.1-4.5,5.9-7.6,6.4c-0.5,0.1-1,0.1-1.5,0.1c-3.3,0-6.4-1.7-9.6-3.5c-3.6-2-7.2-4-11.6-4
	c-2,0-4,0.4-6.1,1.4c0,0,0,0,0,0c-6.7,3.2-8.3,9-9.6,14.2c-1,3.8-1.9,7.1-4.6,8.8c-1.7,1-3.7,1.5-6.2,1.5c-1.7,0-3.4-0.2-5.3-0.4
	c-1.9-0.2-3.8-0.4-5.8-0.4c-3.1,0-7.6,0.5-11.6,4.7c0,0,0,0,0,0c-5,5.5-4.2,11.5-3.5,16.8c0.5,3.9,1,7.3-0.9,9.9
	c-2.3,3.2-6.2,4.3-10.2,5.5c-5.5,1.6-11.6,3.3-14.4,10.6c0,0,0,0,0,0c-2.5,7,0.5,12.2,3.2,16.9c2,3.4,3.7,6.4,3,9.5
	c-0.9,3.8-4.1,6.3-7.4,9c-4.4,3.5-9.5,7.5-9.2,15.3c0,0,0,0,0,0c0.3,7.4,5.2,11.1,9.4,14.3c3.1,2.4,5.9,4.5,6.4,7.6
	c0.6,3.9-1.3,7.4-3.4,11.1c-2.8,5-5.9,10.6-2.7,17.7c0,0,0,0,0,0c3.2,6.7,9,8.3,14.2,9.6c3.8,1,7.1,1.9,8.8,4.6
	c2.1,3.3,1.6,7.3,1.1,11.5c-0.6,5.6-1.4,12,4.3,17.3c0,0,0,0,0,0c3,2.7,6.4,4,10.8,4c2.1,0,4.1-0.3,6-0.5c1.8-0.2,3.4-0.5,5-0.5
	c2.1,0,3.6,0.4,4.9,1.4c3.2,2.3,4.3,6.2,5.5,10.2c1.6,5.5,3.3,11.6,10.6,14.4c0,0,0,0,0,0c1.7,0.6,3.4,0.9,5.1,0.9
	c4.6,0,8.4-2.2,11.7-4.2c2.8-1.6,5.4-3.2,8-3.2c0.5,0,1,0.1,1.5,0.2c3.8,0.9,6.3,4.1,9,7.4c3.4,4.3,7.3,9.2,14.7,9.2
	c0.2,0,0.4,0,0.6,0c0,0,0,0,0,0c7.4-0.3,11.1-5.2,14.3-9.4c2.4-3.1,4.5-5.9,7.6-6.4c0.5-0.1,1-0.1,1.5-0.1c3.3,0,6.4,1.7,9.6,3.5
	c3.6,2,7.2,4,11.6,4c2,0,4-0.4,6.1-1.4c0,0,0,0,0,0c6.7-3.2,8.3-9,9.6-14.2c1-3.8,1.9-7.1,4.6-8.8c1.7-1,3.7-1.5,6.3-1.5
	c1.7,0,3.4,0.2,5.3,0.4c1.9,0.2,3.8,0.4,5.8,0.4c3.1,0,7.6-0.5,11.6-4.7c0,0,0,0,0,0c5-5.5,4.2-11.5,3.5-16.8
	c-0.5-3.9-1-7.3,0.9-9.9c2.3-3.2,6.2-4.3,10.2-5.5c5.5-1.6,11.6-3.3,14.4-10.6c0,0,0,0,0,0c2.5-7-0.5-12.2-3.2-16.9
	c-2-3.4-3.7-6.4-3-9.5c0.9-3.8,4.1-6.3,7.4-9C208.7,211.9,213.7,207.9,213.4,200.1C213.4,200.1,213.4,200.1,213.4,200.1z M202,212.7
	c-3.6,2.9-7.4,5.9-8.6,10.9c-1.1,4.5,1.2,8.3,3.4,12.1c2.5,4.3,4.9,8.4,3,13.9c-2.1,5.6-6.7,6.9-12.1,8.5c-4.5,1.3-9.1,2.6-12.1,6.8
	c-2.7,3.7-2.1,8.2-1.5,12.4c0.7,5,1.3,9.7-2.6,14c-2.4,2.5-5.1,3.6-9,3.6c-1.7,0-3.5-0.2-5.4-0.4c-1.9-0.2-3.8-0.4-5.7-0.4
	c-3.2,0-5.8,0.7-8.1,2c-3.9,2.4-5.1,6.7-6.2,10.9c-1.3,4.9-2.5,9.5-7.7,11.9c-1.6,0.7-3.1,1-4.6,1c-3.5,0-6.6-1.7-9.9-3.6
	c-3.5-1.9-7.1-3.9-11.3-3.9c-0.7,0-1.4,0.1-2.1,0.2c-4.6,0.7-7.2,4.3-9.9,7.7c-3,4-5.9,7.8-11.7,8.1c-6,0.2-9-3.5-12.4-7.9
	c-2.9-3.6-5.9-7.4-10.9-8.6c-0.8-0.2-1.5-0.3-2.3-0.3c-3.5,0-6.7,1.8-9.7,3.6c-3.1,1.8-6.3,3.7-9.9,3.7c-1.3,0-2.6-0.2-4-0.7
	c-5.6-2.1-6.9-6.7-8.5-12.1c-1.3-4.5-2.6-9.1-6.8-12.1c-1.9-1.4-4.1-2-7-2c-1.8,0-3.7,0.3-5.5,0.5c-1.8,0.3-3.7,0.5-5.5,0.5
	c-3.5,0-6.1-1-8.4-3.1c-4.4-4.1-3.8-8.9-3.2-14.4c0.5-4.6,1.1-9.4-1.6-13.8c-2.4-3.9-6.7-5.1-10.9-6.2c-4.9-1.3-9.5-2.5-11.9-7.7
	c-2.5-5.5-0.2-9.7,2.5-14.5c2.3-4.1,4.6-8.3,3.8-13.3c-0.7-4.6-4.3-7.3-7.7-9.9c-4-3-7.8-5.9-8.1-11.7c-0.2-6,3.6-9,7.9-12.4
	c3.6-2.9,7.4-5.9,8.6-10.9c1.1-4.5-1.2-8.3-3.4-12.1c-2.5-4.3-4.9-8.4-3-13.9c2.1-5.6,6.7-6.9,12.1-8.5c4.5-1.3,9.1-2.6,12.1-6.8
	c2.7-3.7,2.1-8.2,1.5-12.4c-0.7-5-1.3-9.7,2.6-14c2.4-2.5,5.1-3.6,9-3.6c1.7,0,3.5,0.2,5.4,0.4c1.9,0.2,3.8,0.4,5.7,0.4
	c3.2,0,5.8-0.7,8.1-2c3.9-2.4,5.1-6.7,6.2-10.9c1.3-4.9,2.5-9.5,7.7-11.9c1.6-0.7,3.1-1,4.6-1c3.5,0,6.6,1.7,9.9,3.6
	c3.5,1.9,7.1,3.9,11.3,3.9c0.7,0,1.4-0.1,2.1-0.2c4.6-0.7,7.3-4.3,9.9-7.7c3-4,5.9-7.8,11.7-8.1c6-0.2,9,3.6,12.4,7.9
	c2.9,3.6,5.9,7.4,10.9,8.6c0.8,0.2,1.5,0.3,2.3,0.3c0,0,0,0,0,0c3.5,0,6.7-1.8,9.7-3.6c3.1-1.8,6.3-3.7,9.9-3.7c1.3,0,2.6,0.2,4,0.7
	c5.6,2.1,6.9,6.7,8.5,12.1c1.3,4.5,2.6,9.1,6.8,12.1c1.9,1.4,4.1,2,7,2c1.8,0,3.7-0.3,5.5-0.5c1.8-0.3,3.7-0.5,5.5-0.5
	c3.5,0,6.1,1,8.4,3.1c4.4,4.1,3.8,8.9,3.2,14.4c-0.5,4.6-1.1,9.4,1.6,13.8c2.4,3.9,6.7,5.1,10.9,6.2c4.9,1.3,9.5,2.5,11.9,7.7
	c2.5,5.5,0.2,9.7-2.5,14.5c-2.3,4.1-4.6,8.3-3.8,13.3c0.7,4.6,4.3,7.2,7.7,9.9c4,3,7.8,5.9,8.1,11.7
	C210.1,206.2,206.4,209.2,202,212.7z"/>
<path class="st2" d="M125.6,184.3c-1.9-12.4-9.7-18.5-20.8-20.3c-0.3,0-0.5-0.2-0.8-0.3c-1.9,0-3.8,0-5.7,0
	c-1.1,0.2-2.1,0.4-3.2,0.7c-5.3,1.3-9.7,4-13.3,8.2c-0.3,0.3-0.6,0.7-0.9,1.1c-0.6-0.7-1.1-1.3-1.6-1.8c-3.9-4.2-8.7-6.7-14.3-7.7
	c-0.5-0.1-1-0.2-1.4-0.3c-1.9,0-3.8,0-5.7,0c-2.5,0.8-5.2,1.2-7.5,2.3c-7.8,3.6-12.6,9.6-14.1,18.2c-0.1,0.3-0.2,0.5-0.3,0.8
	c0,2,0,4,0,6c0.1,0.3,0.2,0.7,0.3,1c0.8,6.4,4.2,11.2,8.2,16.2c4.3,5.3,8.8,10.3,13.9,14.7c7.6,6.4,15,13.1,20.8,21.2
	c0.7,1,2.9,1,3.6,0c5.4-7.9,12.4-14.4,19.5-20.6c4.6-4,9.4-7.6,13.4-12.2c4.4-5.1,8-9.9,9.5-16.4c0.3-1.3,0.5-2.5,0.8-3.8
	c0-2,0-4,0-6C125.8,184.8,125.7,184.6,125.6,184.3z M79.3,212.7l-3.3-3.3c-0.6-0.6-1.4-0.6-2,0c-0.6,0.6-0.6,1.4,0,2l5.4,5.4
	l0.2,9.9c-1-0.4-2.2-1.1-3.5-2c-3.4-2.6-5.2-6.1-5.2-10.5c0-8.8,7.2-20.5,10-24.8c2.8,4.3,10,16,10,24.8c0,3.6-1.2,6.7-3.7,9.2
	c-1.7,1.7-3.5,2.7-4.9,3.3l-0.2-10.4l4.8-4.8c0.6-0.6,0.6-1.4,0-2c-0.6-0.6-1.4-0.6-2,0l-2.9,2.9l-0.2-11.7c0-0.8-0.7-1.4-1.4-1.4
	c-0.8,0-1.4,0.7-1.4,1.4L79.3,212.7z M119.1,201.6c-3.1,4.9-6.4,9.5-10.7,13.4c-7.1,6.4-14.2,12.6-21.1,19.1c-1.9,1.8-4.2,5.3-6,7.5
	c0.2-3.2,0.4-9.2,0.6-11.9c1.3-0.4,4.6-1.7,7.4-4.5c3-3,4.5-6.8,4.5-11.2c0-5-2-11.3-5.9-18.7c-2.9-5.4-5.7-9.3-5.8-9.5
	c-0.3-0.4-0.7-0.6-1.1-0.6c-0.5,0-0.9,0.2-1.1,0.6c-0.1,0.2-3,4.1-5.8,9.5c-3.9,7.4-5.9,13.6-5.9,18.7c0,5.2,2.2,9.6,6.3,12.7
	c2.1,1.6,4.2,2.5,5.3,2.9c0.1,3.2,0.5,9.1,0.8,12.1c-2-2.3-5.7-6.8-7.6-8.6c-5.6-5.2-9.6-9-15.2-14.2c-4.5-4.2-8.6-9.1-12.6-13.8
	c-5.1-5.8-6.4-12.7-5.5-20.4c1.7-15.2,18.3-24.5,31.4-16.2c3.1,2,3.1,2,7.2,5.9c0,0,2,3.6,5.5,0.1c3.9-3.9,4.2-4.1,7.3-6.1
	c12.3-7.8,29,0.1,32,14.1C124.5,189.5,122.7,195.8,119.1,201.6z"/>
<g>
	<path id="SVGID_x5F_1_x5F_" style="fill:none;" d="M-277.7,3810.1c0,198.1,160.6,358.7,358.7,358.7
		c198.1,0,358.7-160.6,358.7-358.7"/>
	<text>	<textPath  xlink:href="#SVGID_x5F_1_x5F_" startOffset="9.999999e-04%">
<tspan  class="st3" style="font-family:'Raleway-Medium'; font-size:117px; letter-spacing:50;">STUFF</tspan>	</textPath>
</text>
	<path id="SVGID_x5F_2_x5F_" style="fill:none;" d="M-262.2,3854.5c0-189.5,153.6-343.2,343.2-343.2
		c189.5,0,343.2,153.6,343.2,343.2"/>
	<text>	<textPath  xlink:href="#SVGID_x5F_2_x5F_" startOffset="2.707%">
<tspan  class="st3" style="font-family:'Raleway-Medium'; font-size:111.9306px; letter-spacing:50;">ALL THE GOOD</tspan>	</textPath>
</text>
	<path class="st3" d="M81,4381.3c-77,0-151.7-15.1-222-44.8c-67.9-28.7-128.9-69.8-181.3-122.2c-52.4-52.4-93.5-113.4-122.2-181.3
		c-29.7-70.3-44.8-145-44.8-222s15.1-151.7,44.8-222c28.7-67.9,69.8-128.9,122.2-181.3c52.4-52.4,113.4-93.5,181.3-122.2
		c70.3-29.7,145-44.8,222-44.8c77,0,151.7,15.1,222,44.8c67.9,28.7,128.9,69.8,181.3,122.2c52.4,52.4,93.5,113.4,122.2,181.3
		c29.7,70.3,44.8,145,44.8,222s-15.1,151.7-44.8,222c-28.7,67.9-69.8,128.9-122.2,181.3c-52.4,52.4-113.4,93.5-181.3,122.2
		C232.7,4366.2,158,4381.3,81,4381.3z M81,3254.8c-75.1,0-147.9,14.7-216.5,43.7c-66.2,28-125.7,68.1-176.8,119.2
		c-51.1,51.1-91.2,110.6-119.2,176.8c-29,68.6-43.7,141.4-43.7,216.5s14.7,147.9,43.7,216.5c28,66.2,68.1,125.7,119.2,176.8
		c51.1,51.1,110.6,91.2,176.8,119.2c68.6,29,141.4,43.7,216.5,43.7s147.9-14.7,216.5-43.7c66.2-28,125.7-68.1,176.8-119.2
		c51.1-51.1,91.2-110.6,119.2-176.8c29-68.6,43.7-141.4,43.7-216.5s-14.7-147.9-43.7-216.5c-28-66.2-68.1-125.7-119.2-176.8
		c-51.1-51.1-110.6-91.2-176.8-119.2C228.9,3269.5,156.1,3254.8,81,3254.8z"/>
	<path class="st4" d="M-145.4,4073.9c-71.7-64.9-116.7-158.6-116.7-262.9"/>
	<path class="st4" d="M424.2,3811c0,103.5-44.3,196.6-115,261.4"/>
	<path class="st5" d="M75.4,4343.6c-30.2,0-46-20-60-37.6c-10.7-13.5-20.9-26.3-36.5-30c-2-0.5-4.1-0.7-6.2-0.7
		c-10.5,0-21.2,6.2-32.5,12.8c-13.6,8-29.1,17-47.7,17c-6.9,0-14-1.3-21-3.8c0,0-0.1,0-0.1,0c-29.7-11.1-36.9-36.3-43.2-58.6
		c-4.7-16.6-9.2-32.3-22.2-41.7c-5.3-3.8-11.5-5.5-20-5.5c-6.3,0-13.1,0.9-20.3,1.9c-7.9,1.1-16.1,2.2-24.5,2.2
		c-17.8,0-31.7-5.2-44-16.3c0,0,0,0-0.1-0.1c-23.1-21.6-20.1-47.7-17.5-70.6c2-17.2,3.8-33.4-4.6-47c-6.9-11.2-20.3-14.7-35.9-18.8
		c-21.1-5.5-45-11.8-57.9-39.2c0,0,0-0.1,0-0.1c-13.1-28.9-0.4-51.8,10.9-72c8.4-15.1,16.3-29.4,13.8-45.2
		c-2.1-12.9-13.2-21.3-26-31.1c-17.4-13.2-37.1-28.1-38.5-58.4c0,0,0-0.1,0-0.1c-1.1-31.7,19.5-48,37.6-62.3
		c13.5-10.7,26.3-20.9,30-36.5c3-12.7-4-24.8-12.1-38.7c-11-18.8-23.5-40.2-13.2-68.7c0,0,0-0.1,0-0.1
		c11.2-29.7,36.3-36.9,58.6-43.2c16.6-4.7,32.3-9.2,41.7-22.2c7.7-10.6,5.8-24.4,3.6-40.3c-3-21.6-6.3-46.1,14.1-68.5
		c0,0,0,0,0.1-0.1c16.2-17.3,34.6-19.3,47.1-19.3c7.9,0,15.8,0.9,23.5,1.8c7.5,0.9,14.6,1.7,21.6,1.7c10.5,0,18.5-2,25.5-6.2
		c11.2-6.9,14.7-20.3,18.8-35.9c5.5-21.1,11.8-45,39.2-57.9c0,0,0.1,0,0.1,0c8.2-3.7,16.3-5.6,24.6-5.6c17.8,0,32.8,8.3,47.3,16.4
		c13.2,7.3,25.7,14.3,39.1,14.3c2,0,4.1-0.2,6.1-0.5c12.9-2.1,21.3-13.2,31.1-26c13.2-17.4,28.1-37.1,58.4-38.5c0,0,0.1,0,0.1,0
		c31.7-1.1,48,19.5,62.3,37.6c10.7,13.5,20.9,26.3,36.5,30c2,0.5,4.1,0.7,6.2,0.7h0c10.5,0,21.2-6.2,32.5-12.8
		c13.6-8,29.1-17,47.7-17c6.9,0,14,1.3,21,3.8c0,0,0.1,0,0.1,0c29.7,11.1,36.9,36.3,43.2,58.6c4.7,16.6,9.2,32.3,22.2,41.7
		c5.3,3.8,11.5,5.5,20,5.5c6.3,0,13.1-0.9,20.3-1.9c7.9-1.1,16.1-2.2,24.5-2.2c17.8,0,31.7,5.2,43.9,16.3c0,0,0,0,0.1,0.1
		c23.1,21.6,20.1,47.7,17.5,70.6c-2,17.2-3.8,33.4,4.6,47c6.9,11.2,20.3,14.7,35.9,18.8c21.1,5.5,45,11.8,57.9,39.2c0,0,0,0.1,0,0.1
		c13.1,28.9,0.4,51.7-10.9,71.9c-8.4,15.1-16.3,29.4-13.8,45.2c2.1,12.9,13.2,21.3,26,31.1c17.4,13.2,37.1,28.1,38.5,58.4
		c0,0,0,0.1,0,0.1c1.1,31.7-19.5,47.9-37.6,62.3c-13.5,10.7-26.3,20.9-30,36.5c-3,12.7,4,24.8,12.1,38.7
		c11,18.8,23.5,40.2,13.2,68.7c0,0,0,0.1,0,0.1c-11.1,29.7-36.3,36.9-58.6,43.2c-16.6,4.7-32.3,9.2-41.7,22.2
		c-7.7,10.6-5.8,24.4-3.6,40.3c3,21.6,6.3,46.1-14.1,68.5c0,0,0,0-0.1,0.1c-16.2,17.3-34.6,19.3-47.1,19.3c-7.9,0-15.8-0.9-23.5-1.8
		c-7.5-0.9-14.6-1.7-21.6-1.7c-10.5,0-18.5,2-25.5,6.2c-11.2,6.9-14.7,20.3-18.8,35.9c-5.5,21.1-11.8,45-39.2,57.9c0,0-0.1,0-0.1,0
		c-8.2,3.7-16.3,5.6-24.7,5.6c-17.8,0-32.8-8.3-47.3-16.4c-13.2-7.3-25.7-14.3-39.1-14.3c-2,0-4.1,0.2-6.1,0.5
		c-12.9,2.1-21.3,13.2-31.1,26c-13.2,17.4-28.1,37.1-58.4,38.5c0,0-0.1,0-0.1,0C76.9,4343.6,76.1,4343.6,75.4,4343.6z M-27.3,4261
		c3.2,0,6.4,0.4,9.5,1.1c20.4,4.8,32.6,20.2,44.3,35c14.1,17.7,26.2,33,50.7,32.2c23.6-1.1,35.3-16.5,47.7-32.9
		c10.6-14,21.6-28.4,40.1-31.4c2.8-0.4,5.6-0.7,8.4-0.7c17.1,0,31.8,8.2,46,16.1c13.5,7.5,26.3,14.6,40.4,14.6
		c6.3,0,12.4-1.4,18.7-4.3c21.4-10.1,26.3-28.8,31.5-48.6c4.5-17,9.1-34.5,25.1-44.4c9.3-5.7,19.7-8.3,32.9-8.3
		c7.7,0,15.6,0.9,23.2,1.8c7.6,0.9,14.8,1.7,21.9,1.7c16,0,27-4.4,36.7-14.8c15.9-17.5,13.3-36.6,10.5-56.9
		c-2.4-17.4-4.8-35.4,6.2-50.6c12.3-17,31.1-22.3,49.3-27.6c21.7-6.2,40.5-11.6,49.1-34.5c8-22.2-1.8-38.9-12.1-56.6
		c-8.9-15.2-18-30.8-13.7-49.1c4.8-20.4,20.2-32.6,35-44.3c17.7-14,33-26.2,32.2-50.7c-1.1-23.6-16.5-35.3-32.9-47.7
		c-14-10.6-28.4-21.6-31.4-40.1c-3.3-20.7,6.2-37.8,15.4-54.4c11-19.8,20.5-36.8,10.3-59.1c-10.1-21.4-28.8-26.3-48.6-31.5
		c-17-4.5-34.5-9.1-44.4-25.1c-11-17.8-8.7-37.3-6.6-56.1c2.6-22.4,4.8-41.8-13.1-58.6c-9.5-8.7-20.1-12.6-34.3-12.6
		c-7.4,0-15.2,1.1-22.6,2.1c-7.4,1-15,2.1-22.3,2.1c-11.6,0-20.6-2.6-28.4-8.2c-17-12.3-22.3-31.1-27.5-49.3
		c-6.2-21.7-11.6-40.5-34.5-49.1c-5.5-2-10.8-2.9-16.1-2.9c-14.8,0-27.9,7.6-40.5,15c-12.4,7.3-25.3,14.8-39.6,14.8c0,0,0,0,0,0
		c-3.2,0-6.4-0.4-9.5-1.1c-20.4-4.8-32.6-20.2-44.3-35c-14.1-17.7-26.2-33-50.7-32.2c-23.6,1.1-35.3,16.5-47.7,32.9
		c-10.6,14-21.6,28.5-40.2,31.4c-2.8,0.4-5.6,0.7-8.4,0.7c-17.1,0-31.8-8.2-46-16.1c-13.5-7.5-26.3-14.6-40.4-14.6
		c-6.3,0-12.4,1.4-18.7,4.3c-21.4,10.1-26.3,28.8-31.5,48.6c-4.5,17-9.1,34.5-25.1,44.4c-9.3,5.7-19.7,8.3-32.9,8.3
		c-7.8,0-15.6-0.9-23.2-1.8c-7.6-0.9-14.8-1.7-21.9-1.7c-16,0-27,4.4-36.7,14.8c-15.9,17.5-13.3,36.6-10.5,56.9
		c2.4,17.4,4.9,35.4-6.2,50.6c-12.3,17-31.1,22.3-49.3,27.5c-21.7,6.2-40.5,11.6-49.1,34.5c-8,22.2,1.8,38.9,12.1,56.6
		c8.9,15.2,18,30.8,13.7,49.1c-4.8,20.4-20.2,32.6-35,44.3c-17.7,14-33,26.2-32.2,50.7c1.1,23.6,16.5,35.3,32.9,47.7
		c14,10.6,28.4,21.6,31.4,40.2c3.3,20.7-6.2,37.8-15.4,54.4c-11,19.8-20.5,36.8-10.4,59.1c10.1,21.4,28.8,26.3,48.6,31.5
		c17,4.5,34.5,9.1,44.4,25.1c11,17.8,8.7,37.3,6.6,56.1c-2.6,22.4-4.8,41.8,13.1,58.6c9.5,8.7,20.1,12.6,34.3,12.6
		c7.4,0,15.1-1.1,22.6-2.1c7.4-1,15-2.1,22.3-2.1c11.6,0,20.6,2.6,28.4,8.2c17,12.3,22.3,31.1,27.5,49.3
		c6.2,21.7,11.6,40.5,34.5,49.1c5.5,2,10.8,2.9,16.1,2.9c14.8,0,27.9-7.6,40.5-15C-54.5,4268.5-41.6,4261-27.3,4261z"/>
	<g>
		<path class="st3" d="M114.6,3909.9c-14.3,14.3-31.8,19-32.5,19.1c-0.9,0.2-1.9,0.2-2.9,0c-0.5-0.1-12.9-3.4-25.4-12.9
			c-16.7-12.8-25.6-30.7-25.6-51.8c0-20.5,8.1-46,24-76c11.7-22,23.3-38,23.7-38.7c1.1-1.5,2.8-2.4,4.7-2.4c1.8,0,3.6,0.9,4.7,2.4
			c0.5,0.7,12,16.6,23.7,38.7c15.9,30,24,55.5,24,76C133,3882.3,126.8,3897.6,114.6,3909.9z M80.6,3917.4c4.1-1.3,16-5.8,25.8-15.7
			c10-10,15.1-22.6,15.1-37.4c0-36-29.3-83.6-40.9-101.1c-11.6,17.5-40.9,65.2-40.9,101.1c0,17.6,7.1,32,21.1,42.6
			C69.1,3913.3,77.4,3916.4,80.6,3917.4z"/>
		<g>
			<g>
				<path class="st3" d="M105.6,3853.1l-22.5,22.5c-2.2,2.2-5.9,2.2-8.1,0l-22.5-22.5c-2.2-2.2-2.2-5.9,0-8.1c2.2-2.2,5.9-2.2,8.1,0
					l18.4,18.4l18.4-18.4c2.2-2.2,5.9-2.2,8.1,0C107.8,3847.3,107.8,3850.9,105.6,3853.1z"/>
			</g>
			<path class="st3" d="M84.9,3922.4c-1,1-2.4,62.8-4,62.8c-3.2,0.1-5.8-63.6-5.8-66.8l-1.8-109.1c-0.1-3.2,2.5-5.8,5.7-5.8
				c3.2-0.1,5.8,2.5,5.8,5.7l1.8,109.1C86.6,3919.9,86,3921.4,84.9,3922.4z"/>
		</g>
	</g>
	<path class="st6" d="M262.9,3743.1c-7.8-50.5-39.5-75.2-84.8-82.8c-1.1-0.2-2.2-0.8-3.3-1.2c-7.7,0-15.5,0-23.2,0
		c-4.3,1-8.7,1.8-13,2.9c-21.6,5.3-39.6,16.3-54.1,33.2c-1.1,1.4-2.4,2.7-3.8,4.3c-2.4-2.7-4.4-5.2-6.6-7.5
		c-15.9-17.1-35.5-27.5-58.4-31.5c-2-0.4-3.9-0.9-5.9-1.4c-7.7,0-15.5,0-23.2,0c-10.3,3.1-21,5.1-30.7,9.5
		c-31.8,14.6-51.1,39.3-57.4,73.9c-0.2,1.2-0.8,2.2-1.2,3.4c0,8.1,0,16.3,0,24.4c0.4,1.3,0.9,2.7,1.1,4c3.1,26,17,45.7,33.5,65.8
		c17.5,21.4,35.7,42,56.7,59.7c31,26.2,61.1,53.2,84.9,86.5c3,4.2,11.7,4.2,14.6-0.1c22-32.3,50.3-58.5,79.5-84
		c18.6-16.2,38.5-31.1,54.5-49.8c17.7-20.7,32.7-40.5,38.7-66.7c1.2-5.1,2.2-10.3,3.3-15.4c0-8.1,0-16.3,0-24.4
		C263.6,3745,263,3744.1,262.9,3743.1z M91.8,3703.6c16.1-16,17-16.7,29.8-24.8c50.1-31.8,118.2,0.4,130.5,57.4
		c6,27.8-1,53.5-16,77.2c-12.7,20.1-26.2,38.9-43.6,54.7c-28.7,26.2-57.7,51.4-86,78c-8.1,7.7-18.6,24-26,32.7
		c-7.9-8.8-24.3-28.8-32.6-36.7c-22.7-21.3-39.3-36.8-62-58c-18.4-17.2-34.8-37.2-51.4-56.1c-20.6-23.5-26-51.9-22.6-83.3
		c6.8-61.8,74.5-99.9,127.9-66c12.6,8,12.6,8,29.5,24.2C69.2,3703,77.4,3717.9,91.8,3703.6z"/>
</g>
<path id="SVGID_x5F_3_x5F_" style="fill:none;" d="M694.2,168.8c0,48.6,39.4,88.1,88.1,88.1c48.6,0,88.1-39.4,88.1-88.1"/>
<text><textPath  xlink:href="#SVGID_x5F_3_x5F_" startOffset="9.999999e-04%">
<tspan  class="st3" style="font-family:'Raleway-Medium'; font-size:28.7223px; letter-spacing:50;">STUFF</tspan></textPath>
</text>
<path id="SVGID_x5F_4_x5F_" style="fill:none;" d="M698,179.7c0-46.5,37.7-84.2,84.2-84.2c46.5,0,84.2,37.7,84.2,84.2"/>
<text><textPath  xlink:href="#SVGID_x5F_4_x5F_" startOffset="2.707%">
<tspan  class="st3" style="font-family:'Raleway-Medium'; font-size:27.4778px; letter-spacing:50;">ALL THE GOOD</tspan></textPath>
</text>
<path class="st3" d="M782.3,309c-18.9,0-37.2-3.7-54.5-11c-16.7-7.1-31.6-17.1-44.5-30c-12.9-12.9-23-27.8-30-44.5
	c-7.3-17.3-11-35.6-11-54.5s3.7-37.2,11-54.5c7.1-16.7,17.1-31.6,30-44.5c12.9-12.9,27.8-23,44.5-30c17.3-7.3,35.6-11,54.5-11
	c18.9,0,37.2,3.7,54.5,11c16.7,7.1,31.6,17.1,44.5,30c12.9,12.9,23,27.8,30,44.5c7.3,17.3,11,35.6,11,54.5s-3.7,37.2-11,54.5
	c-7.1,16.7-17.1,31.6-30,44.5c-12.9,12.9-27.8,23-44.5,30C819.5,305.3,801.1,309,782.3,309z M782.3,32.5c-18.4,0-36.3,3.6-53.1,10.7
	c-16.3,6.9-30.9,16.7-43.4,29.3c-12.5,12.5-22.4,27.1-29.3,43.4c-7.1,16.8-10.7,34.7-10.7,53.1s3.6,36.3,10.7,53.1
	c6.9,16.3,16.7,30.9,29.3,43.4c12.5,12.5,27.1,22.4,43.4,29.3c16.8,7.1,34.7,10.7,53.1,10.7s36.3-3.6,53.1-10.7
	c16.3-6.9,30.9-16.7,43.4-29.3c12.5-12.5,22.4-27.1,29.3-43.4c7.1-16.8,10.7-34.7,10.7-53.1s-3.6-36.3-10.7-53.1
	c-6.9-16.3-16.7-30.9-29.3-43.4c-12.5-12.5-27.1-22.4-43.4-29.3C818.6,36.1,800.7,32.5,782.3,32.5z"/>
<path class="st5" d="M780.9,299.7c-7.4,0-11.3-4.9-14.7-9.2c-2.6-3.3-5.1-6.5-9-7.4c-0.5-0.1-1-0.2-1.5-0.2c-2.6,0-5.2,1.5-8,3.2
	c-3.3,2-7.1,4.2-11.7,4.2c-1.7,0-3.4-0.3-5.1-0.9c0,0,0,0,0,0c-7.3-2.7-9-8.9-10.6-14.4c-1.2-4.1-2.3-7.9-5.5-10.2
	c-1.3-0.9-2.8-1.4-4.9-1.4c-1.6,0-3.2,0.2-5,0.5c-1.9,0.3-4,0.5-6,0.5c-4.4,0-7.8-1.3-10.8-4c0,0,0,0,0,0
	c-5.7-5.3-4.9-11.7-4.3-17.3c0.5-4.2,0.9-8.2-1.1-11.5c-1.7-2.7-5-3.6-8.8-4.6c-5.2-1.4-11-2.9-14.2-9.6c0,0,0,0,0,0
	c-3.2-7.1-0.1-12.7,2.7-17.7c2.1-3.7,4-7.2,3.4-11.1c-0.5-3.2-3.2-5.2-6.4-7.6c-4.3-3.2-9.1-6.9-9.4-14.3c0,0,0,0,0,0
	c-0.3-7.8,4.8-11.8,9.2-15.3c3.3-2.6,6.5-5.1,7.4-9c0.7-3.1-1-6.1-3-9.5c-2.7-4.6-5.8-9.9-3.2-16.9c0,0,0,0,0,0
	c2.7-7.3,8.9-9,14.4-10.6c4.1-1.2,7.9-2.3,10.2-5.5c1.9-2.6,1.4-6,0.9-9.9c-0.7-5.3-1.6-11.3,3.5-16.8c0,0,0,0,0,0
	c4-4.2,8.5-4.7,11.6-4.7c1.9,0,3.9,0.2,5.8,0.4c1.8,0.2,3.6,0.4,5.3,0.4c2.6,0,4.6-0.5,6.2-1.5c2.7-1.7,3.6-5,4.6-8.8
	c1.4-5.2,2.9-11,9.6-14.2c0,0,0,0,0,0c2-0.9,4-1.4,6.1-1.4c4.4,0,8,2,11.6,4c3.2,1.8,6.3,3.5,9.6,3.5c0.5,0,1,0,1.5-0.1
	c3.2-0.5,5.2-3.2,7.6-6.4c3.2-4.3,6.9-9.1,14.3-9.4c0,0,0,0,0,0c7.8-0.3,11.8,4.8,15.3,9.2c2.6,3.3,5.1,6.5,9,7.4
	c0.5,0.1,1,0.2,1.5,0.2h0c2.6,0,5.2-1.5,8-3.2c3.3-2,7.1-4.2,11.7-4.2c1.7,0,3.4,0.3,5.1,0.9c0,0,0,0,0,0c7.3,2.7,9,8.9,10.6,14.4
	c1.2,4.1,2.3,7.9,5.5,10.2c1.3,0.9,2.8,1.4,4.9,1.4c1.6,0,3.2-0.2,5-0.5c1.9-0.3,4-0.5,6-0.5c4.4,0,7.8,1.3,10.8,4c0,0,0,0,0,0
	c5.7,5.3,4.9,11.7,4.3,17.3c-0.5,4.2-0.9,8.2,1.1,11.5c1.7,2.7,5,3.6,8.8,4.6c5.2,1.4,11,2.9,14.2,9.6c0,0,0,0,0,0
	c3.2,7.1,0.1,12.7-2.7,17.7c-2.1,3.7-4,7.2-3.4,11.1c0.5,3.2,3.2,5.2,6.4,7.6c4.3,3.2,9.1,6.9,9.4,14.3c0,0,0,0,0,0
	c0.3,7.8-4.8,11.8-9.2,15.3c-3.3,2.6-6.5,5.1-7.4,9c-0.7,3.1,1,6.1,3,9.5c2.7,4.6,5.8,9.9,3.2,16.9c0,0,0,0,0,0
	c-2.7,7.3-8.9,9-14.4,10.6c-4.1,1.2-7.9,2.3-10.2,5.5c-1.9,2.6-1.4,6-0.9,9.9c0.7,5.3,1.6,11.3-3.5,16.8c0,0,0,0,0,0
	c-4,4.2-8.5,4.7-11.6,4.7c-1.9,0-3.9-0.2-5.8-0.4c-1.8-0.2-3.6-0.4-5.3-0.4c-2.6,0-4.6,0.5-6.3,1.5c-2.7,1.7-3.6,5-4.6,8.8
	c-1.4,5.2-2.9,11-9.6,14.2c0,0,0,0,0,0c-2,0.9-4,1.4-6.1,1.4c-4.4,0-8-2-11.6-4c-3.2-1.8-6.3-3.5-9.6-3.5c-0.5,0-1,0-1.5,0.1
	c-3.2,0.5-5.2,3.2-7.6,6.4c-3.2,4.3-6.9,9.1-14.3,9.4c0,0,0,0,0,0C781.2,299.7,781.1,299.7,780.9,299.7z M755.7,279.5
	c0.8,0,1.6,0.1,2.3,0.3c5,1.2,8,5,10.9,8.6c3.5,4.4,6.4,8.1,12.4,7.9c5.8-0.3,8.7-4.1,11.7-8.1c2.6-3.4,5.3-7,9.9-7.7
	c0.7-0.1,1.4-0.2,2.1-0.2c4.2,0,7.8,2,11.3,3.9c3.3,1.8,6.5,3.6,9.9,3.6c1.5,0,3-0.3,4.6-1c5.2-2.5,6.4-7.1,7.7-11.9
	c1.1-4.2,2.2-8.5,6.2-10.9c2.3-1.4,4.8-2,8.1-2c1.9,0,3.8,0.2,5.7,0.4c1.9,0.2,3.6,0.4,5.4,0.4c3.9,0,6.6-1.1,9-3.6
	c3.9-4.3,3.3-9,2.6-14c-0.6-4.3-1.2-8.7,1.5-12.4c3-4.2,7.6-5.5,12.1-6.8c5.3-1.5,9.9-2.8,12.1-8.5c2-5.5-0.4-9.6-3-13.9
	c-2.2-3.7-4.4-7.6-3.4-12.1c1.2-5,5-8,8.6-10.9c4.3-3.4,8.1-6.4,7.9-12.4c-0.3-5.8-4.1-8.7-8.1-11.7c-3.4-2.6-7-5.3-7.7-9.9
	c-0.8-5.1,1.5-9.3,3.8-13.3c2.7-4.8,5-9,2.5-14.5c-2.5-5.2-7.1-6.4-11.9-7.7c-4.2-1.1-8.5-2.2-10.9-6.2c-2.7-4.4-2.1-9.2-1.6-13.8
	c0.6-5.5,1.2-10.3-3.2-14.4c-2.3-2.1-4.9-3.1-8.4-3.1c-1.8,0-3.7,0.3-5.5,0.5c-1.8,0.2-3.7,0.5-5.5,0.5c-2.8,0-5.1-0.6-7-2
	c-4.2-3-5.5-7.6-6.8-12.1c-1.5-5.3-2.8-9.9-8.5-12.1c-1.3-0.5-2.6-0.7-4-0.7c-3.6,0-6.8,1.9-9.9,3.7c-3.1,1.8-6.2,3.6-9.7,3.6
	c0,0,0,0,0,0c-0.8,0-1.6-0.1-2.3-0.3c-5-1.2-8-5-10.9-8.6c-3.5-4.4-6.4-8.1-12.4-7.9c-5.8,0.3-8.7,4.1-11.7,8.1
	c-2.6,3.4-5.3,7-9.9,7.7c-0.7,0.1-1.4,0.2-2.1,0.2c-4.2,0-7.8-2-11.3-3.9c-3.3-1.8-6.5-3.6-9.9-3.6c-1.5,0-3,0.3-4.6,1
	c-5.2,2.5-6.4,7.1-7.7,11.9c-1.1,4.2-2.2,8.5-6.2,10.9c-2.3,1.4-4.8,2-8.1,2c-1.9,0-3.8-0.2-5.7-0.4c-1.9-0.2-3.6-0.4-5.4-0.4
	c-3.9,0-6.6,1.1-9,3.6c-3.9,4.3-3.3,9-2.6,14c0.6,4.3,1.2,8.7-1.5,12.4c-3,4.2-7.6,5.5-12.1,6.8c-5.3,1.5-9.9,2.8-12.1,8.5
	c-2,5.5,0.4,9.6,3,13.9c2.2,3.7,4.4,7.6,3.4,12.1c-1.2,5-5,8-8.6,10.9c-4.3,3.4-8.1,6.4-7.9,12.4c0.3,5.8,4.1,8.7,8.1,11.7
	c3.4,2.6,7,5.3,7.7,9.9c0.8,5.1-1.5,9.3-3.8,13.3c-2.7,4.8-5,9-2.5,14.5c2.5,5.2,7.1,6.4,11.9,7.7c4.2,1.1,8.5,2.2,10.9,6.2
	c2.7,4.4,2.1,9.2,1.6,13.8c-0.6,5.5-1.2,10.3,3.2,14.4c2.3,2.1,4.9,3.1,8.4,3.1c1.8,0,3.7-0.3,5.5-0.5c1.8-0.2,3.7-0.5,5.5-0.5
	c2.8,0,5.1,0.6,7,2c4.2,3,5.5,7.6,6.8,12.1c1.5,5.3,2.8,9.9,8.5,12.1c1.3,0.5,2.6,0.7,4,0.7c3.6,0,6.8-1.9,9.9-3.7
	C749,281.3,752.1,279.5,755.7,279.5z"/>
<g>
	<path class="st3" d="M790.5,193.3c-3.5,3.5-7.8,4.7-8,4.7c-0.2,0.1-0.5,0.1-0.7,0c-0.1,0-3.2-0.8-6.2-3.2
		c-4.1-3.1-6.3-7.5-6.3-12.7c0-5,2-11.3,5.9-18.7c2.9-5.4,5.7-9.3,5.8-9.5c0.3-0.4,0.7-0.6,1.1-0.6c0.5,0,0.9,0.2,1.1,0.6
		c0.1,0.2,3,4.1,5.8,9.5c3.9,7.4,5.9,13.6,5.9,18.7C795,186.5,793.5,190.3,790.5,193.3z M782.2,195.1c1-0.3,3.9-1.4,6.3-3.9
		c2.5-2.5,3.7-5.5,3.7-9.2c0-8.8-7.2-20.5-10-24.8c-2.8,4.3-10,16-10,24.8c0,4.3,1.7,7.8,5.2,10.5
		C779.3,194.1,781.4,194.9,782.2,195.1z"/>
	<g>
		<g>
			<path class="st3" d="M788.3,179.3l-5.5,5.5c-0.6,0.6-1.4,0.6-2,0l-5.5-5.5c-0.6-0.6-0.6-1.4,0-2c0.6-0.6,1.4-0.6,2,0l4.5,4.5
				l4.5-4.5c0.6-0.6,1.4-0.6,2,0C788.8,177.9,788.8,178.8,788.3,179.3z"/>
		</g>
		<path class="st3" d="M783.2,196.4c-0.2,0.3-0.6,15.4-1,15.4c-0.8,0-1.4-15.6-1.4-16.4l-0.5-26.8c0-0.8,0.6-1.4,1.4-1.4
			c0.8,0,1.4,0.6,1.4,1.4l0.5,26.8C783.6,195.7,783.5,196.1,783.2,196.4z"/>
	</g>
</g>
<path class="st6" d="M826.9,152.3c-1.9-12.4-9.7-18.5-20.8-20.3c-0.3,0-0.5-0.2-0.8-0.3c-1.9,0-3.8,0-5.7,0
	c-1.1,0.2-2.1,0.4-3.2,0.7c-5.3,1.3-9.7,4-13.3,8.2c-0.3,0.3-0.6,0.7-0.9,1.1c-0.6-0.7-1.1-1.3-1.6-1.8c-3.9-4.2-8.7-6.7-14.3-7.7
	c-0.5-0.1-1-0.2-1.4-0.3c-1.9,0-3.8,0-5.7,0c-2.5,0.8-5.2,1.2-7.5,2.3c-7.8,3.6-12.6,9.6-14.1,18.2c-0.1,0.3-0.2,0.5-0.3,0.8
	c0,2,0,4,0,6c0.1,0.3,0.2,0.7,0.3,1c0.8,6.4,4.2,11.2,8.2,16.2c4.3,5.3,8.8,10.3,13.9,14.7c7.6,6.4,15,13.1,20.8,21.2
	c0.7,1,2.9,1,3.6,0c5.4-7.9,12.4-14.4,19.5-20.6c4.6-4,9.4-7.6,13.4-12.2c4.4-5.1,8-9.9,9.5-16.4c0.3-1.3,0.5-2.5,0.8-3.8
	c0-2,0-4,0-6C827.1,152.8,826.9,152.6,826.9,152.3z M784.9,142.6c3.9-3.9,4.2-4.1,7.3-6.1c12.3-7.8,29,0.1,32,14.1
	c1.5,6.8-0.2,13.1-3.9,19c-3.1,4.9-6.4,9.5-10.7,13.4c-7.1,6.4-14.2,12.6-21.1,19.1c-2,1.9-4.6,5.9-6.4,8c-1.9-2.2-6-7.1-8-9
	c-5.6-5.2-9.6-9-15.2-14.2c-4.5-4.2-8.6-9.1-12.6-13.8c-5.1-5.8-6.4-12.7-5.5-20.4c1.7-15.2,18.3-24.5,31.4-16.2
	c3.1,2,3.1,2,7.2,5.9C779.3,142.5,781.4,146.1,784.9,142.6z"/>
</svg>
