<?xml version="1.0" encoding="utf-8"?>
<!-- Generator: Adobe Illustrator 19.0.0, SVG Export Plug-In . SVG Version: 6.00 Build 0)  -->
<svg version="1.1" xmlns="http://www.w3.org/2000/svg" xmlns:xlink="http://www.w3.org/1999/xlink" x="0px" y="0px" width="280px"
	 height="280px" viewBox="0 0 280 280" style="enable-background:new 0 0 280 280;" xml:space="preserve">
	<style type="text/css">
		.st0{fill:#FFFFFF;}
	</style>
	<g id="Layer_1">
		<path class="st0" d="M108.1,204.6c-0.1-0.3-0.2-0.7-0.4-1.1c-0.2-0.4-0.5-0.8-0.8-1.2c-0.3-0.4-0.7-0.8-1.1-1.2
			c-0.4-0.4-0.9-0.8-1.4-1.1c-1.4-0.8-2.5-1.2-3.5-1c-0.9,0.1-1.7,0.6-2.2,1.5c-0.3,0.5-0.4,0.9-0.4,1.3s0.1,0.9,0.4,1.3
			c0.3,0.5,0.6,0.9,1.1,1.4c0.5,0.5,1.1,1.1,1.7,1.7c0.8,0.7,1.5,1.5,2.1,2.1c0.6,0.7,1,1.4,1.3,2.1c0.3,0.7,0.4,1.4,0.4,2.1
			c-0.1,0.7-0.3,1.5-0.8,2.2c-0.5,0.8-1.1,1.5-1.8,1.9c-0.7,0.4-1.4,0.7-2.3,0.7c-0.8,0.1-1.7,0-2.5-0.3s-1.8-0.7-2.7-1.2
			c-1.3-0.8-2.5-1.8-3.5-2.9c-1-1.1-1.7-2.4-2.2-3.8l2.2-1.2c0.1,0.4,0.3,0.9,0.5,1.4c0.3,0.5,0.6,1.1,1,1.6c0.4,0.5,0.9,1.1,1.4,1.6
			c0.5,0.5,1.1,1,1.8,1.4c1.2,0.7,2.4,1.1,3.3,1.1c1,0,1.7-0.5,2.2-1.4c0.3-0.5,0.4-1,0.4-1.4c0-0.5-0.2-1-0.5-1.5
			c-0.3-0.5-0.7-1-1.2-1.6c-0.5-0.6-1.1-1.2-1.8-1.9c-0.8-0.7-1.4-1.4-1.9-2.1c-0.5-0.6-0.9-1.3-1.2-1.9c-0.2-0.6-0.3-1.2-0.3-1.9
			s0.3-1.3,0.7-2c0.5-0.8,1.1-1.5,1.8-1.9s1.5-0.7,2.3-0.8c0.8-0.1,1.7,0,2.6,0.2c0.9,0.2,1.8,0.6,2.7,1.2c1.2,0.7,2.1,1.5,2.9,2.5
			c0.7,0.9,1.3,1.9,1.7,3L108.1,204.6z"/>
		<path class="st0" d="M128.4,209.3l-6.8-2l-5.1,17.4l-2.5-0.7l5.1-17.4l-6.8-2l0.6-2.2l16,4.7L128.4,209.3z"/>
		<path class="st0" d="M140,225.7c1.2,0,2.2-0.2,3-0.6c0.8-0.4,1.4-1,1.9-1.8c0.5-0.7,0.8-1.6,1-2.5s0.3-1.9,0.3-2.9l0.2-10.3l2.6,0
			l-0.2,10.3c0,1.4-0.2,2.7-0.5,3.9c-0.3,1.2-0.9,2.3-1.6,3.2c-0.7,0.9-1.6,1.7-2.7,2.2c-1.1,0.5-2.5,0.8-4,0.8c-1.6,0-3-0.3-4.1-0.9
			c-1.1-0.6-2-1.4-2.6-2.3c-0.7-1-1.1-2.1-1.4-3.3c-0.3-1.2-0.4-2.5-0.4-3.8l0.2-10.3l2.6,0l-0.2,10.3c0,1,0.1,2,0.3,2.9
			s0.5,1.8,1,2.5s1.1,1.3,1.8,1.8C137.8,225.4,138.8,225.6,140,225.7z"/>
		<path class="st0" d="M157.9,226.2l-5.4-19.7l13-3.6l0.6,2.2l-10.5,2.9l1.8,6.6l8.8-2.4l0.6,2.1l-8.8,2.4l2.4,8.8L157.9,226.2z"/>
		<path class="st0" d="M178,219.5l-10-17.8l11.7-6.6l1.1,2l-9.5,5.3l3.3,5.9l8-4.5l1.1,1.9l-8,4.5l4.5,8L178,219.5z"/>
		<path class="st0" d="M47.5,103.6l1-1.9l21,2l-1.2,2.3l-6.1-0.6l-3.8,7.3l4,4.7l-1.2,2.3L47.5,103.6z M60.1,105.1l-9.6-1.1l6.3,7.4
			L60.1,105.1z"/>
		<path class="st0" d="M71.5,101.3l-15-12.4L58,87l13.3,11l6.9-8.4l1.7,1.4L71.5,101.3z"/>
		<path class="st0" d="M82.4,88.9L70.1,73.8l1.9-1.6l10.9,13.4l8.4-6.9l1.4,1.7L82.4,88.9z"/>
		<path class="st0" d="M107,54.3l-6.2,2.7l6.9,15.9l-2.3,1l-6.9-15.9l-6.2,2.7l-0.9-2l14.6-6.3L107,54.3z"/>
		<path class="st0" d="M128.9,47.2l3.5,19.2l-2.4,0.4l-1.6-8.7l-10.6,1.9l1.6,8.7l-2.4,0.4L113.4,50l2.4-0.4l1.5,8.3L128,56l-1.5-8.3
			L128.9,47.2z"/>
		<path class="st0" d="M150.8,64.6l-0.1,2.2l-13.2-0.5l0.8-19.5l13,0.5l-0.1,2.2l-10.5-0.4l-0.3,6.3l9.1,0.4l-0.1,2.1l-9.1-0.4
			l-0.3,6.7L150.8,64.6z"/>
		<path class="st0" d="M176,71.3c-2.3,1.1-4.4,1.3-6.5,0.5c-1.2-0.5-2.3-1.1-3.1-2.1s-1.5-1.9-1.9-3.1c-0.4-1.1-0.7-2.4-0.7-3.6
			s0.2-2.5,0.6-3.7c0.5-1.2,1.1-2.3,1.9-3.3c0.8-0.9,1.8-1.7,2.9-2.3c1.1-0.6,2.2-0.9,3.5-1c1.2-0.1,2.5,0.1,3.7,0.5
			c1.8,0.7,3.1,1.6,4,2.7c0.9,1.2,1.4,2.4,1.5,3.9l-2.2,0.6c-0.2-1.3-0.6-2.3-1.3-3.2c-0.7-0.9-1.6-1.5-2.8-1.9
			c-0.9-0.3-1.8-0.5-2.7-0.3c-0.9,0.1-1.7,0.4-2.5,0.9c-0.8,0.5-1.5,1.1-2.1,1.8s-1.1,1.6-1.4,2.5c-0.4,1-0.5,2-0.5,3
			c0,1,0.2,1.9,0.5,2.8s0.8,1.6,1.4,2.3c0.6,0.7,1.4,1.2,2.3,1.5c2,0.7,4.1,0.4,6.5-0.9l0.9-2.5l-3.9-1.5l0.6-1.8l5.9,2.2l-3.4,9.1
			l-2-0.7L176,71.3z"/>
		<path class="st0" d="M187.2,81c-1.1-0.8-2-1.7-2.6-2.8c-0.6-1.1-1-2.3-1.1-3.5c-0.1-1.2-0.1-2.4,0.2-3.7c0.3-1.2,0.8-2.4,1.5-3.4
			c0.7-1.1,1.6-2,2.7-2.7s2.2-1.2,3.4-1.5c1.2-0.3,2.4-0.3,3.6-0.2c1.2,0.2,2.4,0.6,3.5,1.4c1.1,0.8,2,1.7,2.6,2.8
			c0.6,1.1,1,2.3,1.1,3.5c0.1,1.2,0.1,2.5-0.2,3.7S201,77,200.3,78c-0.7,1.1-1.6,2-2.7,2.7c-1.1,0.7-2.2,1.2-3.4,1.5
			c-1.2,0.3-2.4,0.3-3.6,0.2C189.4,82.2,188.2,81.8,187.2,81z M187.2,69.1c-0.6,0.8-1,1.7-1.2,2.6c-0.3,0.9-0.3,1.9-0.3,2.8
			c0.1,0.9,0.3,1.8,0.8,2.6c0.4,0.8,1.1,1.5,1.9,2.1c0.9,0.6,1.8,0.9,2.7,1c0.9,0.1,1.8,0,2.7-0.3s1.7-0.7,2.5-1.3
			c0.8-0.6,1.4-1.3,1.9-2c0.6-0.8,1-1.7,1.2-2.6c0.3-0.9,0.3-1.9,0.2-2.8c-0.1-0.9-0.4-1.8-0.8-2.6c-0.4-0.8-1.1-1.5-1.9-2
			c-0.9-0.6-1.8-0.9-2.7-1c-0.9-0.1-1.8,0-2.7,0.3c-0.9,0.3-1.7,0.7-2.5,1.3S187.7,68.3,187.2,69.1z"/>
		<path class="st0" d="M202.7,94.7c-0.9-1-1.5-2.1-1.9-3.4c-0.3-1.2-0.4-2.4-0.3-3.6c0.2-1.2,0.5-2.4,1.1-3.5s1.4-2.1,2.3-2.9
			c1-0.9,2.1-1.5,3.3-2s2.4-0.7,3.6-0.7s2.4,0.2,3.6,0.7s2.2,1.2,3,2.2c0.9,1,1.5,2.1,1.8,3.4s0.4,2.4,0.2,3.7s-0.5,2.4-1.1,3.5
			c-0.6,1.1-1.3,2.1-2.3,2.9c-1,0.9-2.1,1.5-3.3,2c-1.2,0.4-2.4,0.7-3.6,0.7c-1.2,0-2.4-0.2-3.6-0.7S203.6,95.6,202.7,94.7z
			 M205.7,83.1c-0.7,0.7-1.3,1.4-1.8,2.3c-0.5,0.9-0.8,1.7-0.9,2.7s-0.1,1.8,0.1,2.7c0.2,0.9,0.7,1.7,1.4,2.5
			c0.7,0.8,1.5,1.3,2.4,1.6c0.9,0.3,1.8,0.4,2.7,0.4c0.9-0.1,1.8-0.3,2.7-0.7c0.9-0.4,1.7-0.9,2.4-1.5c0.7-0.7,1.3-1.4,1.8-2.3
			s0.8-1.7,0.9-2.7c0.1-0.9,0.1-1.8-0.1-2.7c-0.2-0.9-0.7-1.7-1.3-2.4c-0.7-0.8-1.5-1.3-2.4-1.7s-1.8-0.5-2.7-0.4s-1.8,0.3-2.7,0.6
			C207.2,82,206.4,82.5,205.7,83.1z"/>
		<path class="st0" d="M211,104.6l17.2-9.1l3.2,6c0.7,1.4,1.1,2.7,1.2,4c0.1,1.3-0.1,2.5-0.5,3.6c-0.4,1.1-1,2.1-1.9,3
			s-1.9,1.7-3.1,2.3c-1.3,0.7-2.6,1.1-3.9,1.3c-1.3,0.2-2.5,0.1-3.6-0.2c-1.1-0.3-2.2-0.9-3.1-1.7c-1-0.8-1.8-1.8-2.4-3.1L211,104.6z
			 M226,112.2c1-0.5,1.8-1.1,2.5-1.8c0.7-0.7,1.2-1.5,1.5-2.3s0.4-1.7,0.3-2.7s-0.4-1.9-0.9-2.9l-2-3.8l-13.4,7.1l2,3.8
			c0.5,1,1.2,1.8,1.9,2.4c0.7,0.6,1.6,1,2.4,1.2s1.8,0.2,2.7,0C224.1,113,225.1,112.7,226,112.2z"/>
		<path class="st0" d="M140,280c-18.9,0-37.2-3.7-54.5-11c-16.7-7.1-31.6-17.1-44.5-30c-12.9-12.9-23-27.8-30-44.5
			C3.7,177.2,0,158.9,0,140s3.7-37.2,11-54.5C18.1,68.8,28.1,53.9,41,41c12.9-12.9,27.8-23,44.5-30C102.8,3.7,121.1,0,140,0
			c18.9,0,37.2,3.7,54.5,11c16.7,7.1,31.6,17.1,44.5,30c12.9,12.9,23,27.8,30,44.5c7.3,17.3,11,35.6,11,54.5s-3.7,37.2-11,54.5
			c-7.1,16.7-17.1,31.6-30,44.5c-12.9,12.9-27.8,23-44.5,30C177.2,276.3,158.9,280,140,280z M140,3.5c-18.4,0-36.3,3.6-53.1,10.7
			C70.6,21.1,56,30.9,43.4,43.4C30.9,56,21.1,70.6,14.2,86.9C7.1,103.7,3.5,121.6,3.5,140s3.6,36.3,10.7,53.1
			c6.9,16.3,16.7,30.9,29.3,43.4c12.5,12.5,27.1,22.4,43.4,29.3c16.8,7.1,34.7,10.7,53.1,10.7s36.3-3.6,53.1-10.7
			c16.3-6.9,30.9-16.7,43.4-29.3c12.5-12.5,22.4-27.1,29.3-43.4c7.1-16.8,10.7-34.7,10.7-53.1s-3.6-36.3-10.7-53.1
			c-6.9-16.3-16.7-30.9-29.3-43.4c-12.5-12.5-27.1-22.4-43.4-29.3C176.3,7.1,158.4,3.5,140,3.5z"/>
		<path class="st0" d="M84.4,210.5c-1.4,0-2.9-0.5-4-1.6c-19.5-17.6-30.6-42.8-30.6-69c0-3.3,2.7-6,6-6s6,2.7,6,6
			c0,22.8,9.7,44.8,26.7,60.1c2.5,2.2,2.6,6,0.4,8.5C87.7,209.9,86,210.5,84.4,210.5z"/>
		<path class="st0" d="M196,210.1c-1.6,0-3.2-0.7-4.4-1.9c-2.2-2.4-2.1-6.2,0.4-8.5c16.7-15.3,26.3-37.1,26.3-59.7c0-3.3,2.7-6,6-6
			s6,2.7,6,6c0,26-11,51-30.2,68.6C198.9,209.6,197.5,210.1,196,210.1z"/>
		<path class="st0" d="M138.6,270.7c-7.4,0-11.3-4.9-14.7-9.2c-2.6-3.3-5.1-6.5-9-7.4c-0.5-0.1-1-0.2-1.5-0.2c-2.6,0-5.2,1.5-8,3.2
			c-3.3,2-7.1,4.2-11.7,4.2c-1.7,0-3.4-0.3-5.1-0.9c0,0,0,0,0,0c-7.3-2.7-9-8.9-10.6-14.4c-1.2-4.1-2.3-7.9-5.5-10.2
			c-1.3-0.9-2.8-1.4-4.9-1.4c-1.6,0-3.2,0.2-5,0.5c-1.9,0.3-4,0.5-6,0.5c-4.4,0-7.8-1.3-10.8-4c0,0,0,0,0,0
			c-5.7-5.3-4.9-11.7-4.3-17.3c0.5-4.2,0.9-8.2-1.1-11.5c-1.7-2.7-5-3.6-8.8-4.6c-5.2-1.4-11-2.9-14.2-9.6c0,0,0,0,0,0
			c-3.2-7.1-0.1-12.7,2.7-17.7c2.1-3.7,4-7.2,3.4-11.1c-0.5-3.2-3.2-5.2-6.4-7.6c-4.3-3.2-9.1-6.9-9.4-14.3c0,0,0,0,0,0
			c-0.3-7.8,4.8-11.8,9.2-15.3c3.3-2.6,6.5-5.1,7.4-9c0.7-3.1-1-6.1-3-9.5c-2.7-4.6-5.8-9.9-3.2-16.9c0,0,0,0,0,0
			c2.7-7.3,8.9-9,14.4-10.6c4.1-1.2,7.9-2.3,10.2-5.5c1.9-2.6,1.4-6,0.9-9.9c-0.7-5.3-1.6-11.3,3.5-16.8c0,0,0,0,0,0
			c4-4.2,8.5-4.7,11.6-4.7c1.9,0,3.9,0.2,5.8,0.4c1.8,0.2,3.6,0.4,5.3,0.4c2.6,0,4.6-0.5,6.2-1.5c2.7-1.7,3.6-5,4.6-8.8
			c1.4-5.2,2.9-11,9.6-14.2c0,0,0,0,0,0c2-0.9,4-1.4,6.1-1.4c4.4,0,8,2,11.6,4c3.2,1.8,6.3,3.5,9.6,3.5c0.5,0,1,0,1.5-0.1
			c3.2-0.5,5.2-3.2,7.6-6.4c3.2-4.3,6.9-9.1,14.3-9.4c0,0,0,0,0,0c7.8-0.3,11.8,4.8,15.3,9.2c2.6,3.3,5.1,6.5,9,7.4
			c0.5,0.1,1,0.2,1.5,0.2h0c2.6,0,5.2-1.5,8-3.2c3.3-2,7.1-4.2,11.7-4.2c1.7,0,3.4,0.3,5.1,0.9c0,0,0,0,0,0c7.3,2.7,9,8.9,10.6,14.4
			c1.2,4.1,2.3,7.9,5.5,10.2c1.3,0.9,2.8,1.4,4.9,1.4c1.6,0,3.2-0.2,5-0.5c1.9-0.3,4-0.5,6-0.5c4.4,0,7.8,1.3,10.8,4c0,0,0,0,0,0
			c5.7,5.3,4.9,11.7,4.3,17.3c-0.5,4.2-0.9,8.2,1.1,11.5c1.7,2.7,5,3.6,8.8,4.6c5.2,1.4,11,2.9,14.2,9.6c0,0,0,0,0,0
			c3.2,7.1,0.1,12.7-2.7,17.7c-2.1,3.7-4,7.2-3.4,11.1c0.5,3.2,3.2,5.2,6.4,7.6c4.3,3.2,9.1,6.9,9.4,14.3c0,0,0,0,0,0
			c0.3,7.8-4.8,11.8-9.2,15.3c-3.3,2.6-6.5,5.1-7.4,9c-0.7,3.1,1,6.1,3,9.5c2.7,4.6,5.8,9.9,3.2,16.9c0,0,0,0,0,0
			c-2.7,7.3-8.9,9-14.4,10.6c-4.1,1.2-7.9,2.3-10.2,5.5c-1.9,2.6-1.4,6-0.9,9.9c0.7,5.3,1.6,11.3-3.5,16.8c0,0,0,0,0,0
			c-4,4.2-8.5,4.7-11.6,4.7c-1.9,0-3.9-0.2-5.8-0.4c-1.8-0.2-3.6-0.4-5.3-0.4c-2.6,0-4.6,0.5-6.3,1.5c-2.7,1.7-3.6,5-4.6,8.8
			c-1.4,5.2-2.9,11-9.6,14.2c0,0,0,0,0,0c-2,0.9-4,1.4-6.1,1.4c-4.4,0-8-2-11.6-4c-3.2-1.8-6.3-3.5-9.6-3.5c-0.5,0-1,0-1.5,0.1
			c-3.2,0.5-5.2,3.2-7.6,6.4c-3.2,4.3-6.9,9.1-14.3,9.4c0,0,0,0,0,0C139,270.7,138.8,270.7,138.6,270.7z M113.4,250.5
			c0.8,0,1.6,0.1,2.3,0.3c5,1.2,8,5,10.9,8.6c3.5,4.4,6.4,8.1,12.4,7.9c5.8-0.3,8.7-4.1,11.7-8.1c2.6-3.4,5.3-7,9.9-7.7
			c0.7-0.1,1.4-0.2,2.1-0.2c4.2,0,7.8,2,11.3,3.9c3.3,1.8,6.5,3.6,9.9,3.6c1.5,0,3-0.3,4.6-1c5.2-2.5,6.4-7.1,7.7-11.9
			c1.1-4.2,2.2-8.5,6.2-10.9c2.3-1.4,4.8-2,8.1-2c1.9,0,3.8,0.2,5.7,0.4c1.9,0.2,3.6,0.4,5.4,0.4c3.9,0,6.6-1.1,9-3.6
			c3.9-4.3,3.3-9,2.6-14c-0.6-4.3-1.2-8.7,1.5-12.4c3-4.2,7.6-5.5,12.1-6.8c5.3-1.5,9.9-2.8,12.1-8.5c2-5.5-0.4-9.6-3-13.9
			c-2.2-3.7-4.4-7.6-3.4-12.1c1.2-5,5-8,8.6-10.9c4.3-3.4,8.1-6.4,7.9-12.4c-0.3-5.8-4.1-8.7-8.1-11.7c-3.4-2.6-7-5.3-7.7-9.9
			c-0.8-5.1,1.5-9.3,3.8-13.3c2.7-4.8,5-9,2.5-14.5c-2.5-5.2-7.1-6.4-11.9-7.7c-4.2-1.1-8.5-2.2-10.9-6.2c-2.7-4.4-2.1-9.2-1.6-13.8
			c0.6-5.5,1.2-10.3-3.2-14.4c-2.3-2.1-4.9-3.1-8.4-3.1c-1.8,0-3.7,0.3-5.5,0.5c-1.8,0.2-3.7,0.5-5.5,0.5c-2.8,0-5.1-0.6-7-2
			c-4.2-3-5.5-7.6-6.8-12.1c-1.5-5.3-2.8-9.9-8.5-12.1c-1.3-0.5-2.6-0.7-4-0.7c-3.6,0-6.8,1.9-9.9,3.7c-3.1,1.8-6.2,3.6-9.7,3.6
			c0,0,0,0,0,0c-0.8,0-1.6-0.1-2.3-0.3c-5-1.2-8-5-10.9-8.6c-3.5-4.4-6.4-8.1-12.4-7.9c-5.8,0.3-8.7,4.1-11.7,8.1
			c-2.6,3.4-5.3,7-9.9,7.7c-0.7,0.1-1.4,0.2-2.1,0.2c-4.2,0-7.8-2-11.3-3.9c-3.3-1.8-6.5-3.6-9.9-3.6c-1.5,0-3,0.3-4.6,1
			c-5.2,2.5-6.4,7.1-7.7,11.9c-1.1,4.2-2.2,8.5-6.2,10.9c-2.3,1.4-4.8,2-8.1,2c-1.9,0-3.8-0.2-5.7-0.4c-1.9-0.2-3.6-0.4-5.4-0.4
			c-3.9,0-6.6,1.1-9,3.6c-3.9,4.3-3.3,9-2.6,14c0.6,4.3,1.2,8.7-1.5,12.4c-3,4.2-7.6,5.5-12.1,6.8c-5.3,1.5-9.9,2.8-12.1,8.5
			c-2,5.5,0.4,9.6,3,13.9c2.2,3.7,4.4,7.6,3.4,12.1c-1.2,5-5,8-8.6,10.9c-4.3,3.4-8.1,6.4-7.9,12.4c0.3,5.8,4.1,8.7,8.1,11.7
			c3.4,2.6,7,5.3,7.7,9.9c0.8,5.1-1.5,9.3-3.8,13.3c-2.7,4.8-5,9-2.5,14.5c2.5,5.2,7.1,6.4,11.9,7.7c4.2,1.1,8.5,2.2,10.9,6.2
			c2.7,4.4,2.1,9.2,1.6,13.8c-0.6,5.5-1.2,10.3,3.2,14.4c2.3,2.1,4.9,3.1,8.4,3.1c1.8,0,3.7-0.3,5.5-0.5c1.8-0.2,3.7-0.5,5.5-0.5
			c2.8,0,5.1,0.6,7,2c4.2,3,5.5,7.6,6.8,12.1c1.5,5.3,2.8,9.9,8.5,12.1c1.3,0.5,2.6,0.7,4,0.7c3.6,0,6.8-1.9,9.9-3.7
			C106.7,252.3,109.9,250.5,113.4,250.5z"/>
		<path class="st0" d="M148.2,164.3c-3.5,3.5-7.8,4.7-8,4.7c-0.2,0.1-0.5,0.1-0.7,0c-0.1,0-3.2-0.8-6.2-3.2
			c-4.1-3.1-6.3-7.5-6.3-12.7c0-5,2-11.3,5.9-18.7c2.9-5.4,5.7-9.3,5.8-9.5c0.3-0.4,0.7-0.6,1.1-0.6c0.5,0,0.9,0.2,1.1,0.6
			c0.1,0.2,3,4.1,5.8,9.5c3.9,7.4,5.9,13.6,5.9,18.7C152.8,157.5,151.3,161.3,148.2,164.3z M139.9,166.1c1-0.3,3.9-1.4,6.3-3.9
			c2.5-2.5,3.7-5.5,3.7-9.2c0-8.8-7.2-20.5-10-24.8c-2.8,4.3-10,16-10,24.8c0,4.3,1.7,7.8,5.2,10.5
			C137.1,165.1,139.1,165.9,139.9,166.1z"/>
		<path class="st0" d="M146,150.3l-5.5,5.5c-0.6,0.6-1.4,0.6-2,0l-5.5-5.5c-0.6-0.6-0.6-1.4,0-2c0.6-0.6,1.4-0.6,2,0l4.5,4.5l4.5-4.5
			c0.6-0.6,1.4-0.6,2,0C146.6,148.9,146.6,149.8,146,150.3z"/>
		<path class="st0" d="M141,167.4c-0.2,0.3-0.6,15.4-1,15.4c-0.8,0-1.4-15.6-1.4-16.4l-0.5-26.8c0-0.8,0.6-1.4,1.4-1.4
			c0.8,0,1.4,0.6,1.4,1.4l0.5,26.8C141.4,166.7,141.2,167.1,141,167.4z"/>
		<path class="st0" d="M184.6,123.3c-1.9-12.4-9.7-18.5-20.8-20.3c-0.3,0-0.5-0.2-0.8-0.3c-1.9,0-3.8,0-5.7,0
			c-1.1,0.2-2.1,0.4-3.2,0.7c-5.3,1.3-9.7,4-13.3,8.2c-0.3,0.3-0.6,0.7-0.9,1.1c-0.6-0.7-1.1-1.3-1.6-1.8c-3.9-4.2-8.7-6.7-14.3-7.7
			c-0.5-0.1-1-0.2-1.4-0.3c-1.9,0-3.8,0-5.7,0c-2.5,0.8-5.2,1.2-7.5,2.3c-7.8,3.6-12.6,9.6-14.1,18.2c-0.1,0.3-0.2,0.5-0.3,0.8
			c0,2,0,4,0,6c0.1,0.3,0.2,0.7,0.3,1c0.8,6.4,4.2,11.2,8.2,16.2c4.3,5.3,8.8,10.3,13.9,14.7c7.6,6.4,15,13.1,20.8,21.2
			c0.7,1,2.9,1,3.6,0c5.4-7.9,12.4-14.4,19.5-20.6c4.6-4,9.4-7.6,13.4-12.2c4.4-5.1,8-9.9,9.5-16.4c0.3-1.3,0.5-2.5,0.8-3.8
			c0-2,0-4,0-6C184.8,123.8,184.7,123.6,184.6,123.3z M142.6,113.6c3.9-3.9,4.2-4.1,7.3-6.1c12.3-7.8,29,0.1,32,14.1
			c1.5,6.8-0.2,13.1-3.9,19c-3.1,4.9-6.4,9.5-10.7,13.4c-7.1,6.4-14.2,12.6-21.1,19.1c-2,1.9-4.6,5.9-6.4,8c-1.9-2.2-6-7.1-8-9
			c-5.6-5.2-9.6-9-15.2-14.2c-4.5-4.2-8.6-9.1-12.6-13.8c-5.1-5.8-6.4-12.7-5.5-20.4c1.7-15.2,18.3-24.5,31.4-16.2
			c3.1,2,3.1,2,7.2,5.9C137.1,113.5,139.1,117.1,142.6,113.6z"/>
	</g>
</svg>
