<?xml version="1.0" encoding="utf-8"?>
<!-- Generator: Adobe Illustrator 19.0.0, SVG Export Plug-In . SVG Version: 6.00 Build 0)  -->
<svg version="1.1" id="Layer_1" xmlns="http://www.w3.org/2000/svg" xmlns:xlink="http://www.w3.org/1999/xlink" x="0px" y="0px"
	 width="1200px" height="905.4px" viewBox="400 -252.4 1200 905.4" style="enable-background:new 400 -252.4 1200 905.4;"
	 xml:space="preserve">
<style type="text/css">
	.st0{opacity:0.3;fill:#F4F4F4;enable-background:new    ;}
	.st1{fill:#FFFFFF;}
	.st2{fill:#FFFFFF;enable-background:new    ;}
	.st3{opacity:0.35;fill:#F4F4F4;enable-background:new    ;}
	.st4{opacity:0.5;fill:#F4F4F4;enable-background:new    ;}
</style>
<path class="st0" d="M677.5-225.8h0.4l96.2,9.8l-0.1,1l-96.4-9.8L488.2-161l-0.3-0.9L676-225.2L677.5-225.8z"/>
<circle class="st1" cx="593.3" cy="20.2" r="0.5"/>
<ellipse class="st1" cx="653.1" cy="473.3" rx="3.8" ry="3.8"/>
<ellipse class="st1" cx="1076.7" cy="649.1" rx="3.8" ry="3.8"/>
<ellipse class="st1" cx="769.3" cy="-25.3" rx="3.8" ry="3.8"/>
<ellipse class="st1" cx="1283.2" cy="207.2" rx="0.8" ry="0.8"/>
<circle class="st1" cx="774.1" cy="-214.9" r="3.8"/>
<ellipse class="st1" cx="544.5" cy="16" rx="0.8" ry="0.8"/>
<circle class="st1" cx="769.3" cy="-91.1" r="0.8"/>
<ellipse class="st1" cx="911.6" cy="-121.6" rx="0.8" ry="0.8"/>
<ellipse class="st1" cx="702" cy="341.7" rx="0.8" ry="0.8"/>
<ellipse class="st1" cx="774.4" cy="532.4" rx="0.8" ry="0.8"/>
<circle class="st1" cx="492.5" cy="598.7" r="0.8"/>
<circle class="st1" cx="1575.3" cy="149" r="0.8"/>
<circle class="st1" cx="771" cy="-24.2" r="0.5"/>
<circle class="st1" cx="744.6" cy="66.4" r="0.5"/>
<circle class="st1" cx="546" cy="95.5" r="0.8"/>
<circle class="st1" cx="1094.6" cy="227" r="0.8"/>
<circle class="st1" cx="621" cy="363.1" r="0.8"/>
<ellipse class="st1" cx="442.1" cy="240.8" rx="0.8" ry="0.8"/>
<ellipse class="st1" cx="423.7" cy="-135.4" rx="0.8" ry="0.8"/>
<ellipse class="st1" cx="400.8" cy="55.8" rx="0.8" ry="0.8"/>
<ellipse class="st1" cx="483.3" cy="-5.4" rx="0.8" ry="0.8"/>
<ellipse class="st1" cx="1359.6" cy="-55.9" rx="0.8" ry="0.8"/>
<circle class="st1" cx="1030.8" cy="531.4" r="0.8"/>
<circle class="st1" cx="1485" cy="207.7" r="0.8"/>
<ellipse class="st1" cx="1249.5" cy="497.7" rx="0.8" ry="0.8"/>
<circle class="st1" cx="1206.7" cy="551.3" r="0.8"/>
<circle class="st1" cx="1014" cy="575.7" r="0.8"/>
<ellipse class="st1" cx="547.6" cy="-94.1" rx="0.8" ry="0.8"/>
<circle class="st1" cx="1093.5" cy="428.9" r="0.8"/>
<ellipse class="st1" cx="1012.5" cy="526.8" rx="0.8" ry="0.8"/>
<ellipse class="st1" cx="864.7" cy="368.8" rx="0.8" ry="0.8"/>
<circle class="st1" cx="885.6" cy="496.2" r="0.8"/>
<circle class="st1" cx="1280.1" cy="172" r="0.8"/>
<circle class="st1" cx="1059.9" cy="253.5" r="0.8"/>
<ellipse class="st1" cx="440.5" cy="379" rx="0.8" ry="0.8"/>
<circle class="st1" cx="770.1" cy="44.7" r="0.5"/>
<circle class="st1" cx="1251.1" cy="-175.2" r="0.8"/>
<ellipse class="st1" cx="1139.4" cy="-95.6" rx="0.8" ry="0.8"/>
<ellipse class="st1" cx="1009.4" cy="383" rx="2.3" ry="2.3"/>
<circle class="st1" cx="813.7" cy="598.7" r="2.3"/>
<circle class="st1" cx="624" cy="595.6" r="2.3"/>
<circle class="st1" cx="458.9" cy="467.1" r="2.3"/>
<ellipse class="st1" cx="623" cy="-190" rx="2.3" ry="2.3"/>
<ellipse class="st1" cx="1177.7" cy="425.8" rx="2.3" ry="2.3"/>
<ellipse class="st1" cx="1203.7" cy="69.5" rx="2.3" ry="2.3"/>
<ellipse class="st1" cx="495.6" cy="248.4" rx="2.3" ry="2.3"/>
<circle class="st1" cx="480.3" cy="-248.6" r="2.3"/>
<circle class="st1" cx="647" cy="380" r="2.3"/>
<circle class="st1" cx="848.9" cy="474.8" r="2.3"/>
<ellipse class="st1" cx="1063" cy="-58.9" rx="2.3" ry="2.3"/>
<ellipse class="st1" cx="1124.1" cy="-172.1" rx="2.3" ry="2.3"/>
<circle class="st1" cx="1396.3" cy="64.9" r="2.3"/>
<circle class="st1" cx="1378" cy="-201.2" r="2.3"/>
<circle class="st1" cx="550.6" cy="157.2" r="2.3"/>
<ellipse class="st1" cx="620" cy="-99.2" rx="2.3" ry="2.3"/>
<ellipse class="st1" cx="1070.6" cy="462.6" rx="2.3" ry="2.3"/>
<circle class="st1" cx="1420.8" cy="643" r="2.3"/>
<ellipse class="st1" cx="1547.7" cy="618.5" rx="2.3" ry="2.3"/>
<circle class="st1" cx="908.5" cy="-221" r="2.3"/>
<ellipse class="st1" cx="1321.4" cy="499.3" rx="2.3" ry="2.3"/>
<circle class="st1" cx="1278.6" cy="130.7" r="0.8"/>
<ellipse class="st1" cx="1475.9" cy="-251.6" rx="0.8" ry="0.8"/>
<ellipse class="st1" cx="1575.3" cy="-121.6" rx="0.8" ry="0.8"/>
<ellipse class="st1" cx="1573.7" cy="-89.5" rx="0.8" ry="0.8"/>
<ellipse class="st1" cx="1596.7" cy="-133.9" rx="0.8" ry="0.8"/>
<ellipse class="st1" cx="533.8" cy="-245.5" rx="0.8" ry="0.8"/>
<circle class="st1" cx="1358.1" cy="592.5" r="0.8"/>
<circle class="st1" cx="1595.2" cy="600.2" r="0.8"/>
<circle class="st1" cx="1278.6" cy="314.2" r="0.8"/>
<circle class="st1" cx="1454.5" cy="58.8" r="0.8"/>
<ellipse class="st1" cx="1381.1" cy="-40.6" rx="0.8" ry="0.8"/>
<circle class="st1" cx="1456" cy="-92.6" r="0.8"/>
<path class="st2" d="M738.1,154.9"/>
<polygon class="st3" points="580.3,265.9 485.1,167.6 484,168.6 579,266.7 486,326.4 486.8,327.6 580,267.8 581.3,266.9 "/>
<path class="st2" d="M677.9-225.8"/>
<path class="st4" d="M1496.7,263l0.5-0.8l63,41l-0.5,0.8L1496.7,263z"/>
<path class="st4" d="M1558.5,303.5l1,0.3l-31,114l-1-0.3L1558.5,303.5z"/>
<path class="st4" d="M1527.6,417.9l0.8-0.6l48,71l-0.8,0.6L1527.6,417.9z"/>
<path class="st4" d="M1575.8,488.1l0.4,0.9l-71,28l-0.4-0.9L1575.8,488.1z"/>
<path class="st4" d="M1430.5,354.8l0.9-0.4l73,162l-0.9,0.4L1430.5,354.8z"/>
<path class="st4" d="M1431.4,354.9l-0.8-0.6l67-92l0.8,0.6L1431.4,354.9z"/>
<circle class="st1" cx="1094.6" cy="286.2" r="0.8"/>
<ellipse class="st1" cx="490" cy="-161" rx="3.8" ry="3.8"/>
<ellipse class="st1" cx="677.5" cy="-225.3" rx="0.8" ry="0.8"/>
<circle class="st1" cx="485.1" cy="169" r="3.8"/>
<circle class="st1" cx="580.3" cy="266.7" r="1.5"/>
<ellipse class="st1" cx="486.9" cy="326.8" rx="2.3" ry="2.3"/>
<circle class="st1" cx="1497.6" cy="263.6" r="2.3"/>
<ellipse class="st1" cx="1431.5" cy="354.4" rx="2.3" ry="2.3"/>
<circle class="st1" cx="1558.9" cy="303.5" r="2.3"/>
<ellipse class="st1" cx="1528.3" cy="417.3" rx="0.8" ry="0.8"/>
<circle class="st1" cx="1575.8" cy="488.4" r="1"/>
<ellipse class="st1" cx="1504.4" cy="516.5" rx="3.8" ry="3.8"/>
</svg>
