<?xml version="1.0" encoding="utf-8"?>
<!-- Generator: Adobe Illustrator 19.0.0, SVG Export Plug-In . SVG Version: 6.00 Build 0)  -->
<svg version="1.1" id="Layer_1" xmlns="http://www.w3.org/2000/svg" xmlns:xlink="http://www.w3.org/1999/xlink" x="0px" y="0px"
	 width="280px" height="280px" viewBox="-59 61 280 280" style="enable-background:new -59 61 280 280;" xml:space="preserve">
<style type="text/css">
	.st0{fill:#FFFFFF;}
	.st1{fill:none;stroke:#FFFFFF;stroke-width:2.9459;stroke-linecap:round;stroke-linejoin:round;stroke-miterlimit:10;}
</style>
<g>
	<path class="st0" d="M62.3,281.8c-0.3,0.7-0.6,1.4-1.2,1.9s-1.1,0.9-1.8,1.1s-1.4,0.4-2.1,0.4c-0.8,0-1.5-0.1-2.3-0.4l-9.1-3.2
		l6.7-19.3l9.6,3.3c0.7,0.2,1.2,0.6,1.7,1.1s0.8,1,1,1.6c0.2,0.6,0.3,1.2,0.3,1.9c0,0.7-0.1,1.3-0.3,1.9c-0.3,1-0.9,1.8-1.6,2.4
		c-0.8,0.6-1.7,1-2.7,1.1c1,0.7,1.7,1.6,2,2.7C62.7,279.5,62.7,280.6,62.3,281.8z M59.9,280.5c0.2-0.4,0.2-0.9,0.2-1.3
		c0-0.5-0.1-0.9-0.3-1.3c-0.2-0.4-0.4-0.8-0.7-1.1c-0.3-0.3-0.7-0.5-1.1-0.7l-6.9-2.4l-2.3,6.6l6.7,2.3c0.5,0.2,0.9,0.2,1.3,0.2
		c0.4,0,0.9-0.2,1.3-0.4c0.4-0.2,0.7-0.5,1-0.8C59.6,281.3,59.8,280.9,59.9,280.5z M54.1,265.3l-2.2,6.4l6.1,2.1
		c0.4,0.2,0.9,0.2,1.3,0.2c0.4,0,0.8-0.2,1.2-0.4c0.4-0.2,0.7-0.5,1-0.8c0.3-0.3,0.5-0.7,0.7-1.2c0.2-0.5,0.2-0.9,0.2-1.4
		c0-0.4-0.1-0.9-0.2-1.2c-0.1-0.4-0.4-0.7-0.7-1c-0.3-0.3-0.6-0.5-1-0.6L54.1,265.3z"/>
	<path class="st0" d="M76,268.2l2.2,0.1l7,20.9l-2.8-0.2l-2-6.1l-8.5-0.5l-2.8,5.8l-2.8-0.2L76,268.2z M80,280.9l-3.1-9.6l-4.4,9.2
		L80,280.9z"/>
	<path class="st0" d="M92.7,288.3l-3.9-20l2.5-0.5l3.5,17.8l11.2-2.2l0.4,2.3L92.7,288.3z"/>
	<path class="st0" d="M112.6,283.2l-7.5-19l2.4-0.9l7.5,19L112.6,283.2z"/>
</g>
<g>
	<path class="st0" d="M-7.9,159.9l17.4,8.9l-1.1,2.2l-7.9-4l-4.9,9.6l7.9,4l-1.1,2.2l-17.4-8.9l1.1-2.2l7.5,3.8l4.9-9.6l-7.5-3.8
		L-7.9,159.9z"/>
	<path class="st0" d="M1.3,147.4l1.4-1.6l20,6.6l-1.7,2l-5.8-1.9l-5.3,6.2l2.9,5.4l-1.7,2L1.3,147.4z M13.3,151.7l-9.1-3.2l4.5,8.6
		L13.3,151.7z"/>
	<path class="st0" d="M18.2,137l8.7,12.1l-2,1.5l-11.5-15.8l1.6-1.1l18.7,5.2l-8.9-12.3l2-1.5l11.4,15.8l-1.7,1.2L18.2,137z"/>
	<path class="st0" d="M42.7,138.5l-7.3-18.1l6.3-2.5c1.4-0.6,2.8-0.9,4.1-0.8c1.3,0,2.5,0.3,3.5,0.8c1.1,0.5,2,1.3,2.8,2.2
		c0.8,1,1.5,2,2,3.3c0.6,1.4,0.8,2.7,0.9,4c0,1.3-0.2,2.5-0.6,3.6s-1.1,2.1-2,2.9c-0.9,0.9-2,1.6-3.3,2.1L42.7,138.5z M51.7,124.3
		c-0.4-1-0.9-1.9-1.6-2.6s-1.3-1.3-2.1-1.7c-0.8-0.4-1.7-0.6-2.6-0.6s-1.9,0.2-2.9,0.6l-4,1.6l5.6,14l4-1.6c1-0.4,1.9-1,2.6-1.6
		c0.7-0.7,1.1-1.4,1.4-2.3c0.3-0.8,0.4-1.8,0.3-2.7C52.4,126.3,52.1,125.3,51.7,124.3z"/>
	<path class="st0" d="M78,129.4l-1.8-15l-5.1,12.3l-1.4,0.2L62,116.1l1.8,15l-2.5,0.3L59,112l2.6-0.3l8.5,11.7l5.5-13.4l2.6-0.3
		l2.3,19.4L78,129.4z"/>
	<path class="st0" d="M93.9,110.9l2.1,0.3l5.3,20.4l-2.6-0.4l-1.5-6l-8.1-1.1l-3,5.4l-2.6-0.4L93.9,110.9z M96.9,123.3l-2.3-9.4
		l-4.8,8.4L96.9,123.3z"/>
	<path class="st0" d="M104.2,132.5l7-18.2l6.3,2.4c1.5,0.6,2.6,1.3,3.6,2.2c0.9,0.9,1.6,1.9,2,3c0.4,1.1,0.6,2.3,0.5,3.5
		s-0.3,2.5-0.8,3.7c-0.5,1.4-1.2,2.6-2.1,3.5c-0.8,1-1.8,1.7-2.9,2.2c-1.1,0.5-2.2,0.8-3.5,0.8c-1.3,0-2.5-0.2-3.9-0.7L104.2,132.5z
		 M120.4,128.3c0.4-1,0.6-2,0.7-3c0-1-0.1-1.9-0.4-2.7c-0.3-0.8-0.8-1.6-1.5-2.2c-0.7-0.7-1.5-1.2-2.5-1.6l-4-1.5l-5.4,14.1l4,1.5
		c1,0.4,2,0.6,3,0.5c0.9,0,1.8-0.3,2.6-0.7c0.8-0.4,1.5-1,2.1-1.8C119.6,130.2,120.1,129.3,120.4,128.3z"/>
	<path class="st0" d="M134.8,145.9l-1.2,1.8l-11-7.3l10.8-16.2l10.8,7.2l-1.2,1.8l-8.8-5.8l-3.5,5.3l7.6,5.1l-1.1,1.7l-7.6-5.1
		l-3.7,5.6L134.8,145.9z"/>
	<path class="st0" d="M147.4,162l15.5-11.8l1.5,2l-15.5,11.8L147.4,162z"/>
	<path class="st0" d="M166.6,163.4l-13.2,6.8l-1.1-2.2l17.3-8.9l0.9,1.7l-8,17.7l13.5-6.9l1.1,2.2l-17.3,8.9l-1-1.9L166.6,163.4z"/>
</g>
<path class="st0" d="M81,341c-18.9,0-37.2-3.7-54.5-11C9.8,322.9-5.1,312.9-18,300c-12.9-12.9-23-27.8-30-44.5
	c-7.3-17.3-11-35.6-11-54.5s3.7-37.2,11-54.5c7.1-16.7,17.1-31.6,30-44.5c12.9-12.9,27.8-23,44.5-30C43.8,64.7,62.1,61,81,61
	c18.9,0,37.2,3.7,54.5,11c16.7,7.1,31.6,17.1,44.5,30c12.9,12.9,23,27.8,30,44.5c7.3,17.3,11,35.6,11,54.5s-3.7,37.2-11,54.5
	c-7.1,16.7-17.1,31.6-30,44.5c-12.9,12.9-27.8,23-44.5,30C118.2,337.3,99.9,341,81,341z M81,64.5c-18.4,0-36.3,3.6-53.1,10.7
	C11.6,82.1-3,91.9-15.6,104.4c-12.5,12.5-22.4,27.1-29.3,43.4c-7.1,16.8-10.7,34.7-10.7,53.1s3.6,36.3,10.7,53.1
	c6.9,16.3,16.7,30.9,29.3,43.4c12.5,12.5,27.1,22.4,43.4,29.3c16.8,7.1,34.7,10.7,53.1,10.7s36.3-3.6,53.1-10.7
	c16.3-6.9,30.9-16.7,43.4-29.3c12.5-12.5,22.4-27.1,29.3-43.4c7.1-16.8,10.7-34.7,10.7-53.1s-3.6-36.3-10.7-53.1
	c-6.9-16.3-16.7-30.9-29.3-43.4c-12.5-12.5-27.1-22.4-43.4-29.3C117.3,68.1,99.4,64.5,81,64.5z"/>
<path class="st0" d="M81,86.7c-0.9,0-1.7-0.8-1.7-1.7V74.4c0-0.9,0.8-1.7,1.7-1.7c0.9,0,1.7,0.8,1.7,1.7V85
	C82.7,86,81.9,86.7,81,86.7z"/>
<path class="st0" d="M81,329.3c-0.9,0-1.7-0.8-1.7-1.7V317c0-0.9,0.8-1.7,1.7-1.7c0.9,0,1.7,0.8,1.7,1.7v10.6
	C82.7,328.5,81.9,329.3,81,329.3z"/>
<path class="st0" d="M207.6,202.7H197c-0.9,0-1.7-0.8-1.7-1.7s0.8-1.7,1.7-1.7h10.6c0.9,0,1.7,0.8,1.7,1.7S208.5,202.7,207.6,202.7z
	"/>
<path class="st0" d="M-35,202.7h-10.6c-0.9,0-1.7-0.8-1.7-1.7s0.8-1.7,1.7-1.7H-35c0.9,0,1.7,0.8,1.7,1.7S-34,202.7-35,202.7z"/>
<path class="st0" d="M23,102.3c-0.6,0-1.2-0.3-1.5-0.9l-5.3-9.2c-0.5-0.8-0.2-1.9,0.6-2.3c0.8-0.5,1.9-0.2,2.3,0.6l5.3,9.2
	c0.5,0.8,0.2,1.9-0.6,2.3C23.6,102.2,23.3,102.3,23,102.3z"/>
<path class="st0" d="M144.3,312.3c-0.6,0-1.2-0.3-1.5-0.9l-5.3-9.2c-0.5-0.8-0.2-1.9,0.6-2.3c0.8-0.5,1.9-0.2,2.3,0.6l5.3,9.2
	c0.5,0.8,0.2,1.9-0.6,2.3C144.9,312.3,144.6,312.3,144.3,312.3z"/>
<path class="st0" d="M181.4,144.7c-0.6,0-1.2-0.3-1.5-0.9c-0.5-0.8-0.2-1.9,0.6-2.3l9.2-5.3c0.8-0.5,1.9-0.2,2.3,0.6
	c0.5,0.8,0.2,1.9-0.6,2.3l-9.2,5.3C182,144.7,181.7,144.7,181.4,144.7z"/>
<path class="st0" d="M-28.6,266c-0.6,0-1.2-0.3-1.5-0.9c-0.5-0.8-0.2-1.9,0.6-2.3l9.2-5.3c0.8-0.5,1.9-0.2,2.3,0.6
	c0.5,0.8,0.2,1.9-0.6,2.3l-9.2,5.3C-28,265.9-28.3,266-28.6,266z"/>
<path class="st0" d="M-19.4,144.7c-0.3,0-0.6-0.1-0.9-0.2l-9.2-5.3c-0.8-0.5-1.1-1.5-0.6-2.3c0.5-0.8,1.5-1.1,2.3-0.6l9.2,5.3
	c0.8,0.5,1.1,1.5,0.6,2.3C-18.3,144.4-18.8,144.7-19.4,144.7z"/>
<path class="st0" d="M190.6,266c-0.3,0-0.6-0.1-0.9-0.2l-9.2-5.3c-0.8-0.5-1.1-1.5-0.6-2.3c0.5-0.8,1.5-1.1,2.3-0.6l9.2,5.3
	c0.8,0.5,1.1,1.5,0.6,2.3C191.8,265.7,191.2,266,190.6,266z"/>
<path class="st0" d="M139,102.3c-0.3,0-0.6-0.1-0.9-0.2c-0.8-0.5-1.1-1.5-0.6-2.3l5.3-9.2c0.5-0.8,1.5-1.1,2.3-0.6
	c0.8,0.5,1.1,1.5,0.6,2.3l-5.3,9.2C140.1,102,139.6,102.3,139,102.3z"/>
<path class="st0" d="M17.7,312.3c-0.3,0-0.6-0.1-0.9-0.2c-0.8-0.5-1.1-1.5-0.6-2.3l5.3-9.2c0.5-0.8,1.5-1.1,2.3-0.6
	c0.8,0.5,1.1,1.5,0.6,2.3l-5.3,9.2C18.9,312,18.3,312.3,17.7,312.3z"/>
<path class="st0" d="M111.6,90.9c-0.1,0-0.3,0-0.5-0.1c-0.9-0.2-1.4-1.2-1.2-2.1l2.8-10.2c0.2-0.9,1.2-1.4,2.1-1.2
	c0.9,0.2,1.4,1.2,1.2,2.1l-2.8,10.2C113,90.4,112.3,90.9,111.6,90.9z"/>
<path class="st0" d="M47.6,324.8c-0.1,0-0.3,0-0.5-0.1c-0.9-0.2-1.4-1.2-1.2-2.1l2.8-10.2c0.2-0.9,1.2-1.4,2.1-1.2
	c0.9,0.2,1.4,1.2,1.2,2.1l-2.8,10.2C49,324.3,48.4,324.8,47.6,324.8z"/>
<path class="st0" d="M203.1,236.1c-0.1,0-0.3,0-0.5-0.1l-10.2-2.8c-0.9-0.2-1.4-1.2-1.2-2.1c0.2-0.9,1.2-1.4,2.1-1.2l10.2,2.8
	c0.9,0.2,1.4,1.2,1.2,2.1C204.5,235.6,203.8,236.1,203.1,236.1z"/>
<path class="st0" d="M-30.9,172.1c-0.1,0-0.3,0-0.5-0.1l-10.2-2.8c-0.9-0.2-1.4-1.2-1.2-2.1c0.2-0.9,1.2-1.4,2.1-1.2l10.2,2.8
	c0.9,0.2,1.4,1.2,1.2,2.1C-29.4,171.6-30.1,172.1-30.9,172.1z"/>
<path class="st0" d="M51.6,90.5c-0.8,0-1.4-0.5-1.7-1.3L47.2,79c-0.2-0.9,0.3-1.8,1.2-2.1c0.9-0.2,1.8,0.3,2.1,1.2l2.7,10.3
	c0.2,0.9-0.3,1.8-1.2,2.1C51.9,90.5,51.7,90.5,51.6,90.5z"/>
<path class="st0" d="M113.1,325.1c-0.8,0-1.4-0.5-1.7-1.3l-2.7-10.3c-0.2-0.9,0.3-1.8,1.2-2.1c0.9-0.2,1.8,0.3,2.1,1.2l2.7,10.3
	c0.2,0.9-0.3,1.8-1.2,2.1C113.4,325.1,113.3,325.1,113.1,325.1z"/>
<path class="st0" d="M193.2,173.3c-0.8,0-1.4-0.5-1.7-1.3c-0.2-0.9,0.3-1.8,1.2-2.1l10.3-2.7c0.9-0.2,1.8,0.3,2.1,1.2
	c0.2,0.9-0.3,1.8-1.2,2.1l-10.3,2.7C193.5,173.3,193.3,173.3,193.2,173.3z"/>
<path class="st0" d="M-41.4,234.8c-0.8,0-1.4-0.5-1.7-1.3c-0.2-0.9,0.3-1.8,1.2-2.1l10.3-2.7c0.9-0.2,1.8,0.3,2.1,1.2
	c0.2,0.9-0.3,1.8-1.2,2.1l-10.3,2.7C-41.1,234.8-41.3,234.8-41.4,234.8z"/>
<path class="st0" d="M-0.6,120.3c-0.4,0-0.9-0.2-1.2-0.5l-7.5-7.5c-0.7-0.7-0.7-1.8,0-2.4c0.7-0.7,1.8-0.7,2.4,0l7.5,7.5
	c0.7,0.7,0.7,1.8,0,2.4C0.3,120.1-0.1,120.3-0.6,120.3z"/>
<path class="st0" d="M170,292.7c-0.4,0-0.9-0.2-1.2-0.5l-7.5-7.5c-0.7-0.7-0.7-1.8,0-2.4c0.7-0.7,1.8-0.7,2.4,0l7.5,7.5
	c0.7,0.7,0.7,1.8,0,2.4C170.9,292.5,170.5,292.7,170,292.7z"/>
<path class="st0" d="M163.4,121.1c-0.4,0-0.9-0.2-1.2-0.5c-0.7-0.7-0.7-1.8,0-2.4l7.5-7.5c0.7-0.7,1.8-0.7,2.4,0
	c0.7,0.7,0.7,1.8,0,2.4l-7.5,7.5C164.3,121,163.9,121.1,163.4,121.1z"/>
<path class="st0" d="M-9,291.7c-0.4,0-0.9-0.2-1.2-0.5c-0.7-0.7-0.7-1.8,0-2.4l7.5-7.5c0.7-0.7,1.8-0.7,2.4,0c0.7,0.7,0.7,1.8,0,2.4
	l-7.5,7.5C-8.1,291.6-8.5,291.7-9,291.7z"/>
<path class="st1" d="M20.9,265.5C3.3,249.6-7.7,226.6-7.7,201"/>
<path class="st1" d="M166.3,201c0,25.4-10.9,48.3-28.2,64.2"/>
<path class="st0" d="M81.5,181.4c-0.2,0-0.5,0-0.7-0.1c-0.1,0-2.3-1-4.4-3.1c-2.9-2.8-4.4-6.4-4.3-10.4c0.2-9,8.3-19.6,8.6-20.1
	c0.3-0.4,0.9-0.7,1.4-0.7c0.5,0,1,0.3,1.4,0.7c0.3,0.5,8,11.4,7.9,20.4c-0.1,4-1.7,7.5-4.7,10.2c-2.2,2-4.5,2.9-4.6,2.9
	C81.9,181.4,81.7,181.4,81.5,181.4z M82,151.8c-2.2,3.3-6.4,10.3-6.5,16c-0.1,5.9,4.4,9,6,9.9c1.7-0.9,6.3-3.7,6.4-9.7
	c0.1-3.2-1.2-7.4-3.5-12.1C83.5,154.4,82.7,152.9,82,151.8z"/>
<path class="st0" d="M81.5,211.7C81.5,211.7,81.5,211.7,81.5,211.7c-1,0-1.7-0.8-1.7-1.7c0.3-16.7-7.2-28-14.4-31.4
	c-1.8-0.8-3.8-0.9-5.7-0.2c-2,0.7-3.6,2.3-4.5,4.2c-1.4,3.1,0.2,7.9,3,9.1c1.3,0.6,3.1,0.6,4.6,0c0.9-0.4,2.2-1.3,2.9-3.1
	c1-2.7-0.1-3.6-1.4-4.2c-0.8-0.3-1.9-0.2-2.7,0.4c-0.5,0.3-1,0.9-0.9,1.9c0.1,0.9-0.6,1.8-1.5,1.9c-0.9,0.1-1.8-0.6-1.9-1.5
	c-0.2-2,0.7-3.8,2.3-5c1.8-1.3,4.2-1.6,6.1-0.7c3.4,1.5,4.6,4.6,3.2,8.5c-0.8,2.4-2.5,4.2-4.7,5.1c-2.3,1-5.1,1-7.3,0
	c-4.6-2-6.9-8.8-4.8-13.6c1.2-2.8,3.6-5,6.4-6.1c2.8-1,5.8-0.9,8.4,0.3c4.6,2.2,8.7,6.6,11.7,12.4c3.2,6.4,4.8,14,4.7,22.1
	C83.2,211,82.4,211.7,81.5,211.7z"/>
<path class="st0" d="M81.5,211.7c-0.9,0-1.7-0.7-1.7-1.7c-0.2-8.1,1.5-15.8,4.7-22.1c2.9-5.8,7.1-10.2,11.7-12.4
	c2.6-1.3,5.6-1.4,8.4-0.3c2.9,1.1,5.2,3.3,6.4,6.1c1,2.2,1.1,5.1,0.2,7.7c-0.9,2.8-2.7,4.9-5,5.9c-2.2,1-5,1-7.3,0
	c-2.2-1-3.9-2.7-4.7-5.1c-1.4-3.8-0.2-6.9,3.2-8.5c1.9-0.8,4.3-0.6,6.1,0.7c1.7,1.2,2.5,3,2.3,5c-0.1,0.9-0.9,1.6-1.9,1.5
	c-0.9-0.1-1.6-0.9-1.5-1.9c0.1-1-0.5-1.6-0.9-1.9c-0.8-0.6-1.9-0.7-2.7-0.4c-1.3,0.6-2.3,1.5-1.4,4.2c0.7,1.8,1.9,2.7,2.9,3.1
	c1.4,0.6,3.2,0.6,4.6,0c1.4-0.6,2.5-2,3.1-3.8c0.6-1.8,0.6-3.8-0.1-5.3c-0.9-2-2.5-3.5-4.5-4.2c-1.9-0.7-3.9-0.6-5.7,0.2
	c-7.1,3.4-14.7,14.7-14.4,31.4C83.2,210.9,82.5,211.7,81.5,211.7C81.5,211.7,81.5,211.7,81.5,211.7z"/>
<path class="st0" d="M62.5,250.5c0,0-0.1,0-0.1,0c-0.9-0.1-1.6-0.9-1.6-1.8l1.1-14.1c-3.7-1.4-6.6-3.2-8.6-5.2
	c-9.4-9.3-11.6-17.3-13.7-27.5c-1.3-6.4-1.7-12.1-1.7-12.3c-0.1-0.8,0.5-1.6,1.3-1.8c1.2-0.3,3.8-0.3,5.8,1.7c1.3,1.4,2.1,4,3.2,7.3
	c1.2,3.8,2.8,8.5,5.1,11c0.3,0.3,0.7,0.7,1,1c-1.9-2.8-3.2-5.2-3.9-7.2c-0.7-2.1-0.5-3.3-0.4-3.7c0.1-0.4,0.4-0.7,0.7-0.9
	c0.2-0.1,2-1.1,4.3-0.5c2.1,0.5,3.9,2.1,5.4,4.7c1.9,3.3,5.9,4.8,9.8,6.4c3.2,1.3,6.3,2.5,8.1,4.7c2.5,3,4,7.1,4.5,12
	c0.4,4.8,0.3,12.5,0.3,12.8c0,0.9-0.8,1.7-1.8,1.7c-0.9,0-1.7-0.8-1.7-1.8c0-0.1,0.2-7.9-0.3-12.4c-0.4-4.2-1.6-7.7-3.7-10.2
	c-1.2-1.5-3.9-2.6-6.7-3.7c-4.2-1.7-9-3.5-11.5-7.8c-1.1-1.9-2.3-3-3.6-3.2c-0.2,0-0.4,0-0.6,0c0.3,1.4,1.5,4.4,5.8,9.9
	c1.3,1.7,5.3,4.2,6.8,5c0.8,0.4,1.1,1.3,0.7,2.1c-0.3,0.8-1.2,1.2-2,1c-0.4-0.1-9.1-2.6-13.8-7.6c-2.9-3-4.5-7.9-5.9-12.3
	c-0.8-2.6-1.7-5.2-2.5-6c-0.3-0.3-0.7-0.5-1-0.7c0.2,2.2,0.7,6,1.5,10c2,10,4,17.2,12.7,25.8c1.9,1.9,4.8,3.5,8.6,4.9
	c0.7,0.3,1.2,1,1.1,1.7L64.2,249C64.1,249.9,63.3,250.5,62.5,250.5z"/>
<path class="st0" d="M81.5,250.5c-0.9,0-1.7-0.8-1.7-1.7v-11.9c0-0.9,0.8-1.7,1.7-1.7c0.9,0,1.7,0.8,1.7,1.7v11.9
	C83.2,249.8,82.4,250.5,81.5,250.5z"/>
<path class="st0" d="M100.5,250.5c-0.9,0-1.6-0.7-1.7-1.6l-1.2-15.4c-0.1-0.8,0.4-1.5,1.1-1.7c3.8-1.4,6.7-3,8.6-4.9
	c8.8-8.6,10.7-15.8,12.7-25.8c0.8-4,1.3-7.8,1.5-10c-0.3,0.1-0.7,0.3-1,0.7c-0.8,0.8-1.6,3.4-2.5,6c-1.4,4.3-3,9.2-5.9,12.3
	c-4.8,5-13.5,7.5-13.8,7.6c-0.8,0.2-1.7-0.2-2-1c-0.3-0.8,0-1.7,0.7-2.1c1.4-0.8,5.4-3.3,6.8-5c4.3-5.5,5.4-8.5,5.8-9.9
	c-1,0-2.5,0.5-4.1,3.2c-2.5,4.3-7.3,6.2-11.5,7.8c-2.8,1.1-5.5,2.2-6.7,3.7c-2.1,2.5-3.3,5.9-3.7,10.2c-0.4,4.6-0.3,12.3-0.3,12.4
	c0,0.9-0.7,1.7-1.7,1.8c0,0,0,0,0,0c-0.9,0-1.7-0.7-1.7-1.7c0-0.3-0.2-8.1,0.3-12.8c0.5-4.9,2-9,4.5-12c1.8-2.2,4.9-3.4,8.1-4.7
	c3.9-1.5,7.9-3.1,9.8-6.4c1.5-2.6,3.3-4.2,5.4-4.7c2.4-0.6,4.1,0.4,4.3,0.5c0.3,0.2,0.6,0.5,0.7,0.9c0.2,0.5,0.4,1.6-0.4,3.7
	c-0.7,2-2,4.4-3.9,7.2c0.4-0.3,0.7-0.6,1-1c2.3-2.5,3.9-7.2,5.1-11c1.1-3.3,1.9-5.9,3.2-7.3c2-2.1,4.6-2.1,5.8-1.7
	c0.8,0.2,1.3,1,1.3,1.8c0,0.2-0.4,5.9-1.7,12.3c-2.1,10.3-4.2,18.3-13.7,27.5c-2.1,2-5,3.8-8.6,5.2l1.1,14.1
	c0.1,0.9-0.6,1.8-1.6,1.8C100.6,250.5,100.5,250.5,100.5,250.5z"/>
<path class="st0" d="M81.5,250.5c-0.9,0-1.7-0.8-1.7-1.7v-11.9c0-0.9,0.8-1.7,1.7-1.7c0.9,0,1.7,0.8,1.7,1.7v11.9
	C83.2,249.8,82.4,250.5,81.5,250.5z"/>
<path class="st0" d="M81.5,250.5c-0.9,0-1.7-0.8-1.7-1.7v-83.9c0-0.9,0.8-1.7,1.7-1.7c0.9,0,1.7,0.8,1.7,1.7v83.9
	C83.2,249.8,82.4,250.5,81.5,250.5z"/>
</svg>
