<?xml version="1.0" encoding="utf-8"?>
<!-- Generator: Adobe Illustrator 19.0.0, SVG Export Plug-In . SVG Version: 6.00 Build 0)  -->
<svg version="1.1" id="Layer_1" xmlns="http://www.w3.org/2000/svg" xmlns:xlink="http://www.w3.org/1999/xlink" x="0px" y="0px"
	 width="150px" height="93.5px" viewBox="132 33 150 93.5" style="enable-background:new 132 33 150 93.5;" xml:space="preserve">
<style type="text/css">
	.st0{fill:#FFFFFF;}
</style>
<g>
	<path class="st0" d="M147.6,99.7l-0.9-12.1l-5.2,9.3h-1.1l-5.2-9.3l-0.9,12.1h-2l0.9-15.7h2.1l5.7,10.2l5.7-10.2h2.1l0.9,15.7
		H147.6z"/>
	<path class="st0" d="M167.2,99.8c-1.1,0-2.1-0.2-3-0.7c-0.9-0.4-1.7-1-2.3-1.8c-0.7-0.8-1.1-1.6-1.5-2.6c-0.3-0.9-0.5-1.9-0.5-2.9
		c0-1,0.2-2,0.6-3c0.4-0.9,0.9-1.8,1.6-2.6c0.7-0.8,1.5-1.3,2.4-1.8c0.9-0.4,1.9-0.7,2.9-0.7c1.1,0,2.1,0.2,3,0.7
		c0.9,0.5,1.7,1.1,2.3,1.8c0.7,0.8,1.1,1.6,1.5,2.6c0.3,0.9,0.5,1.9,0.5,2.9c0,1-0.2,2-0.6,3c-0.4,0.9-0.9,1.8-1.6,2.5
		s-1.4,1.3-2.3,1.8C169.2,99.6,168.2,99.8,167.2,99.8z M161.8,91.9c0,0.8,0.1,1.6,0.4,2.3c0.2,0.8,0.6,1.4,1.1,2
		c0.5,0.6,1,1,1.7,1.4c0.7,0.3,1.4,0.5,2.2,0.5c0.9,0,1.6-0.2,2.3-0.5c0.7-0.4,1.2-0.9,1.7-1.4c0.5-0.6,0.8-1.2,1-2
		c0.2-0.8,0.4-1.5,0.4-2.2c0-0.8-0.1-1.6-0.4-2.3c-0.2-0.8-0.6-1.4-1.1-1.9c-0.5-0.6-1-1-1.7-1.4c-0.7-0.3-1.4-0.5-2.2-0.5
		c-0.9,0-1.6,0.2-2.3,0.5s-1.2,0.8-1.7,1.4c-0.5,0.6-0.8,1.2-1.1,1.9C161.9,90.4,161.8,91.1,161.8,91.9z"/>
	<path class="st0" d="M191.9,99.8c-1.1,0-2.1-0.2-3-0.7c-0.9-0.4-1.7-1-2.3-1.8c-0.7-0.8-1.1-1.6-1.5-2.6c-0.3-0.9-0.5-1.9-0.5-2.9
		c0-1,0.2-2,0.6-3c0.4-0.9,0.9-1.8,1.6-2.6s1.5-1.3,2.4-1.8c0.9-0.4,1.9-0.7,2.9-0.7c1.1,0,2.1,0.2,3,0.7c0.9,0.5,1.7,1.1,2.3,1.8
		c0.7,0.8,1.1,1.6,1.5,2.6c0.3,0.9,0.5,1.9,0.5,2.9c0,1-0.2,2-0.6,3c-0.4,0.9-0.9,1.8-1.6,2.5s-1.4,1.3-2.3,1.8
		C193.9,99.6,192.9,99.8,191.9,99.8z M186.6,91.9c0,0.8,0.1,1.6,0.4,2.3c0.2,0.8,0.6,1.4,1.1,2c0.5,0.6,1,1,1.7,1.4
		c0.7,0.3,1.4,0.5,2.2,0.5c0.9,0,1.6-0.2,2.3-0.5c0.7-0.4,1.2-0.9,1.7-1.4c0.5-0.6,0.8-1.2,1-2c0.2-0.8,0.4-1.5,0.4-2.2
		c0-0.8-0.1-1.6-0.4-2.3c-0.2-0.8-0.6-1.4-1.1-1.9c-0.5-0.6-1-1-1.7-1.4c-0.7-0.3-1.4-0.5-2.2-0.5c-0.9,0-1.6,0.2-2.3,0.5
		c-0.7,0.3-1.2,0.8-1.7,1.4c-0.5,0.6-0.8,1.2-1.1,1.9C186.7,90.4,186.6,91.1,186.6,91.9z"/>
	<path class="st0" d="M212.3,87.7v12h-2V84.1h1.6l9.7,12.2V84.1h2v15.6h-1.7L212.3,87.7z"/>
	<path class="st0" d="M235.6,99.7V84h2v13.9h8.8v1.8H235.6z"/>
	<path class="st0" d="M256.7,99.7V84h2v15.7H256.7z"/>
	<path class="st0" d="M282,85.8h-5.4v13.9h-2V85.8h-5.4v-1.8H282V85.8z"/>
	<path class="st0" d="M142.5,114.2c-0.2-0.2-0.4-0.4-0.7-0.6c-0.3-0.2-0.6-0.4-1-0.5c-0.4-0.1-0.8-0.3-1.2-0.4
		c-0.4-0.1-0.9-0.1-1.4-0.1c-1.2,0-2.1,0.2-2.7,0.7c-0.6,0.5-0.9,1.1-0.9,1.9c0,0.4,0.1,0.8,0.2,1c0.1,0.3,0.4,0.5,0.8,0.7
		c0.3,0.2,0.8,0.4,1.3,0.5c0.5,0.1,1.1,0.3,1.8,0.5c0.8,0.2,1.6,0.4,2.2,0.6c0.7,0.2,1.2,0.5,1.7,0.9c0.5,0.3,0.8,0.8,1,1.2
		c0.2,0.5,0.4,1.1,0.4,1.8c0,0.8-0.1,1.4-0.4,1.9c-0.3,0.6-0.7,1-1.2,1.4c-0.5,0.4-1.1,0.6-1.8,0.8s-1.4,0.2-2.3,0.2
		c-1.2,0-2.4-0.2-3.4-0.6c-1.1-0.4-2.1-0.9-2.9-1.7l0.9-1.7c0.2,0.2,0.5,0.5,0.9,0.8c0.4,0.2,0.8,0.5,1.3,0.7c0.5,0.2,1,0.4,1.6,0.5
		c0.6,0.1,1.1,0.2,1.8,0.2c1.1,0,2-0.2,2.6-0.6c0.6-0.4,0.9-1,0.9-1.8c0-0.4-0.1-0.8-0.3-1.1c-0.2-0.3-0.5-0.6-0.9-0.8
		s-0.9-0.4-1.4-0.6c-0.6-0.2-1.2-0.3-1.9-0.5c-0.8-0.2-1.5-0.4-2.1-0.6c-0.6-0.2-1.1-0.5-1.5-0.8c-0.4-0.3-0.7-0.7-0.9-1.1
		c-0.2-0.4-0.3-0.9-0.3-1.6c0-0.8,0.1-1.4,0.4-2c0.3-0.6,0.7-1,1.2-1.5c0.5-0.4,1.1-0.7,1.8-0.9s1.4-0.3,2.3-0.3c1,0,2,0.1,2.9,0.5
		c0.9,0.3,1.6,0.8,2.3,1.3L142.5,114.2z"/>
	<path class="st0" d="M152.7,126.5v-15.6h2v8.7l8.1-8.7h2.1l-6.3,6.9l6.6,8.8h-2.2l-5.7-7.6l-2.7,2.8v4.8L152.7,126.5L152.7,126.5z"
		/>
	<path class="st0" d="M173.4,126.5v-15.7h2v15.7L173.4,126.5L173.4,126.5z"/>
	<path class="st0" d="M187.2,114.6v12h-2v-15.7h1.6l9.7,12.2v-12.2h2v15.6h-1.7L187.2,114.6z"/>
	<path class="st0" d="M206.9,118.6c0-0.9,0.1-1.9,0.5-2.8c0.3-0.9,0.8-1.8,1.5-2.5c0.7-0.8,1.4-1.3,2.4-1.8c0.9-0.5,2-0.7,3.2-0.7
		c1.4,0,2.6,0.3,3.6,0.9s1.8,1.5,2.2,2.5l-1.6,1c-0.2-0.5-0.5-0.9-0.9-1.3c-0.3-0.3-0.7-0.6-1.1-0.8c-0.4-0.2-0.8-0.3-1.2-0.4
		c-0.4-0.1-0.8-0.1-1.2-0.1c-0.9,0-1.7,0.2-2.3,0.5c-0.7,0.4-1.2,0.9-1.7,1.4c-0.5,0.6-0.8,1.2-1,1.9c-0.2,0.7-0.3,1.5-0.3,2.2
		c0,0.8,0.1,1.6,0.4,2.4c0.3,0.8,0.7,1.4,1.1,2c0.5,0.6,1,1,1.7,1.4c0.7,0.3,1.4,0.5,2.2,0.5c0.4,0,0.9,0,1.3-0.1
		c0.4-0.1,0.9-0.3,1.2-0.5c0.4-0.2,0.8-0.5,1.1-0.9c0.3-0.3,0.6-0.8,0.9-1.2l1.7,0.9c-0.2,0.6-0.6,1.1-1,1.6
		c-0.4,0.4-0.9,0.8-1.5,1.1s-1.2,0.5-1.8,0.7c-0.6,0.1-1.2,0.2-1.8,0.2c-1.1,0-2-0.2-2.9-0.7c-0.9-0.5-1.7-1.1-2.3-1.8
		s-1.2-1.6-1.5-2.6C207.1,120.6,206.9,119.6,206.9,118.6z"/>
	<path class="st0" d="M233.8,110.9h1.7l6.4,15.7h-2.1l-1.8-4.6h-6.6l-1.8,4.6h-2.1L233.8,110.9z M237.5,120.4l-2.8-7.2l-2.9,7.2
		H237.5z"/>
	<path class="st0" d="M249.7,126.5v-15.7h6.7c0.7,0,1.3,0.1,1.9,0.4c0.6,0.3,1.1,0.7,1.5,1.1c0.4,0.5,0.8,1,1,1.6
		c0.2,0.6,0.3,1.2,0.3,1.8c0,0.5-0.1,1.1-0.2,1.6c-0.1,0.5-0.4,0.9-0.7,1.4c-0.3,0.4-0.6,0.8-1,1c-0.4,0.3-0.9,0.5-1.4,0.7l3.8,6
		h-2.3l-3.5-5.6h-4.2v5.6L249.7,126.5L249.7,126.5z M251.7,119.2h4.7c0.4,0,0.8-0.1,1.1-0.3c0.3-0.2,0.6-0.4,0.9-0.7
		c0.2-0.3,0.4-0.7,0.6-1c0.1-0.4,0.2-0.8,0.2-1.2c0-0.4-0.1-0.9-0.2-1.2c-0.1-0.4-0.4-0.8-0.6-1c-0.2-0.3-0.6-0.5-0.9-0.7
		c-0.3-0.2-0.7-0.2-1.1-0.2h-4.6L251.7,119.2L251.7,119.2z"/>
	<path class="st0" d="M280.9,124.8v1.8h-10.6v-15.7h10.4v1.8h-8.4v5.1h7.3v1.7h-7.3v5.4H280.9z"/>
	<path class="st0" d="M205.9,48c0-6.7,4.4-12.4,10.5-14.3c-1.4-0.5-2.9-0.7-4.5-0.7c-8.3,0-15,6.7-15,15s6.7,15,15,15
		c1.6,0,3.1-0.2,4.5-0.7C210.3,60.4,205.9,54.7,205.9,48z"/>
</g>
</svg>
