<?xml version="1.0" encoding="utf-8"?>
<!-- Generator: Adobe Illustrator 19.0.0, SVG Export Plug-In . SVG Version: 6.00 Build 0)  -->
<svg version="1.1" id="Layer_1" xmlns="http://www.w3.org/2000/svg" xmlns:xlink="http://www.w3.org/1999/xlink" x="0px" y="0px"
	 width="280px" height="280px" viewBox="1 61 280 280" style="enable-background:new 1 61 280 280;" xml:space="preserve">
<style type="text/css">
	.st0{fill:#FFFFFF;}
</style>
<g>
	<path class="st0" d="M70.6,137.6c-0.3,0-0.7,0-1.2,0.1c-0.4,0.1-0.9,0.2-1.4,0.4s-1,0.5-1.5,0.7c-0.5,0.3-0.9,0.7-1.4,1.2
		c-1.2,1.2-1.7,2.1-1.8,3.1c-0.1,0.9,0.2,1.8,1,2.5c0.4,0.4,0.8,0.7,1.2,0.7s0.8,0.1,1.4-0.1c0.5-0.2,1.1-0.4,1.6-0.7
		c0.6-0.3,1.3-0.7,2.1-1.3c0.9-0.6,1.7-1.1,2.6-1.5s1.6-0.7,2.3-0.8c0.7-0.1,1.5-0.1,2.1,0.2s1.3,0.7,2,1.3c0.7,0.7,1.2,1.4,1.4,2.2
		c0.2,0.7,0.3,1.6,0.2,2.4c-0.2,0.8-0.4,1.6-0.9,2.4c-0.5,0.8-1.1,1.6-1.8,2.3c-1.1,1.2-2.3,2-3.6,2.6c-1.3,0.7-2.7,1.1-4.2,1.2
		l-0.7-2.4c0.4,0,1-0.1,1.6-0.2c0.6-0.1,1.2-0.3,1.8-0.6c0.7-0.2,1.2-0.6,1.9-1c0.7-0.4,1.2-0.9,1.7-1.4c1-1.1,1.6-2.1,1.8-3
		s-0.1-1.7-0.8-2.5c-0.4-0.4-0.8-0.7-1.3-0.7s-1-0.1-1.5,0.1c-0.6,0.2-1.2,0.4-1.8,0.8c-0.7,0.4-1.4,0.8-2.2,1.3
		c-0.9,0.6-1.7,1-2.5,1.4c-0.7,0.3-1.5,0.6-2.1,0.7c-0.7,0.1-1.3,0-1.9-0.2c-0.6-0.2-1.2-0.6-1.7-1.2c-0.7-0.7-1.2-1.4-1.5-2.2
		c-0.2-0.8-0.4-1.6-0.2-2.4c0.1-0.8,0.3-1.6,0.8-2.5c0.4-0.8,1.1-1.6,1.8-2.4c1-1,2-1.7,3-2.2c1.1-0.5,2.1-0.8,3.3-0.9L70.6,137.6z"
		/>
	<path class="st0" d="M79.8,137c-0.7-1-1.2-2.1-1.5-3.4s-0.4-2.5-0.2-3.8c0.2-1.2,0.6-2.5,1.2-3.6c0.7-1.2,1.6-2.1,3-3
		c1.5-1,3-1.5,4.6-1.6c1.6,0,3,0.3,4.2,1.1l-1,2.2c-0.6-0.4-1.2-0.7-1.8-0.7c-0.6-0.2-1.2-0.2-1.7-0.1c-0.6,0.1-1.2,0.2-1.6,0.4
		c-0.5,0.2-1,0.4-1.4,0.7c-0.9,0.7-1.6,1.4-2.1,2.2c-0.5,0.9-0.7,1.8-0.8,2.7c-0.1,1,0,1.9,0.2,2.9c0.2,1,0.7,1.8,1.2,2.6
		c0.6,0.9,1.3,1.6,2.1,2.3c0.8,0.6,1.7,1.1,2.6,1.3c0.9,0.2,1.9,0.3,2.9,0.2s1.9-0.4,2.7-1c0.4-0.3,0.9-0.7,1.2-1.1
		c0.4-0.4,0.7-0.9,1-1.4c0.2-0.5,0.5-1.1,0.6-1.7c0.2-0.7,0.2-1.3,0-2l2.5-0.2c0.2,0.8,0.2,1.6,0,2.5c-0.2,0.8-0.4,1.6-0.8,2.3
		s-0.9,1.4-1.5,2.1s-1.2,1.2-1.8,1.6c-1.2,0.7-2.4,1.2-3.7,1.3c-1.3,0.2-2.6,0-3.9-0.3c-1.2-0.3-2.4-0.9-3.5-1.7
		C81.4,139.1,80.6,138.1,79.8,137z"/>
	<path class="st0" d="M103.9,134.6L95.7,116l2.4-1.1l8.3,18.6L103.9,134.6z"/>
	<path class="st0" d="M124.2,125.4l0.6,2.2l-13.3,3.7l-5.4-19.7l13.1-3.6l0.6,2.2l-10.6,3l1.7,6.3l9.2-2.6l0.6,2.1l-9.2,2.6l1.9,6.8
		L124.2,125.4z"/>
	<path class="st0" d="M130.6,111.3l0.7,15.6l-2.6,0.1l-0.8-20.3l2-0.1l13.3,15.3l-0.7-15.8l2.6-0.1l0.8,20.3l-2.1,0.1L130.6,111.3z"
		/>
	<path class="st0" d="M151.8,116.3c0.2-1.2,0.7-2.4,1.3-3.5s1.5-2.1,2.5-2.9c1-0.8,2.1-1.3,3.5-1.7c1.3-0.4,2.7-0.4,4.2-0.1
		c1.8,0.3,3.2,1.1,4.4,2.1c1.2,1.1,1.9,2.3,2.2,3.7l-2.2,0.9c-0.2-0.7-0.4-1.3-0.7-1.8c-0.3-0.5-0.7-1-1.2-1.3
		c-0.4-0.3-0.9-0.7-1.4-0.9c-0.5-0.2-1-0.4-1.5-0.5c-1.1-0.2-2.1-0.2-3,0.1c-0.9,0.3-1.8,0.7-2.6,1.4c-0.7,0.7-1.3,1.4-1.8,2.2
		c-0.5,0.9-0.8,1.8-1,2.7c-0.2,1.1-0.2,2.1-0.1,3.1c0.2,1,0.5,2,1,2.8c0.5,0.8,1.1,1.6,1.8,2.2c0.7,0.6,1.6,1,2.6,1.2
		c0.5,0.1,1.1,0.2,1.6,0.2c0.6,0,1.2-0.2,1.7-0.3c0.6-0.2,1.2-0.5,1.6-0.8c0.5-0.3,1-0.8,1.4-1.4l1.9,1.6c-0.5,0.7-1.1,1.2-1.7,1.7
		c-0.7,0.5-1.4,0.8-2.2,1.1c-0.8,0.2-1.6,0.4-2.5,0.4s-1.6,0-2.4-0.2c-1.4-0.2-2.6-0.8-3.6-1.6c-1-0.8-1.9-1.8-2.5-3
		c-0.7-1.2-1.1-2.4-1.3-3.7C151.5,119,151.5,117.7,151.8,116.3z"/>
	<path class="st0" d="M184.1,134.8l-0.9,2.1l-12.7-5.5l8.2-18.7l12.4,5.4l-0.9,2.1l-10-4.4l-2.6,6.1l8.7,3.8l-0.8,2l-8.7-3.8
		l-2.8,6.4L184.1,134.8z"/>
	<path class="st0" d="M199.6,149c-1.1-1-1.8-2.1-2.3-3.3c-0.5-1.2-0.7-2.5-0.7-3.8s0.2-2.6,0.7-3.8c0.5-1.2,1.2-2.3,2.1-3.3
		c0.9-1,2-1.8,3.1-2.4c1.2-0.6,2.5-1,3.7-1.2c1.3-0.2,2.6,0,3.8,0.3c1.2,0.3,2.4,1,3.5,1.9c1.1,1,1.8,2.1,2.3,3.3
		c0.5,1.2,0.7,2.5,0.7,3.8s-0.2,2.6-0.7,3.8c-0.5,1.2-1.2,2.3-2,3.3c-0.9,1-2,1.8-3.1,2.4c-1.2,0.6-2.4,1-3.7,1.2
		c-1.2,0.2-2.6,0-3.8-0.3C201.7,150.5,200.5,149.9,199.6,149z M201.2,136.6c-0.7,0.7-1.2,1.6-1.6,2.6c-0.4,0.9-0.6,1.9-0.7,2.9
		c0,1,0.1,1.9,0.5,2.8c0.3,0.9,0.9,1.7,1.7,2.4c0.8,0.7,1.7,1.2,2.6,1.4c1,0.2,1.9,0.2,2.9,0.1s1.9-0.5,2.7-1
		c0.9-0.5,1.6-1.2,2.3-1.8c0.7-0.7,1.2-1.6,1.6-2.6c0.4-0.9,0.6-1.9,0.7-2.9c0-1-0.2-1.9-0.5-2.8s-0.9-1.7-1.6-2.4
		c-0.8-0.7-1.7-1.2-2.6-1.4c-1-0.2-1.9-0.2-2.9-0.1c-1,0.2-1.9,0.5-2.7,1C202.7,135.3,201.9,135.9,201.2,136.6z"/>
	<path class="st0" d="M209.2,158.5l16.6-11.9l7.8,11l-1.9,1.3l-6.3-8.8l-5.5,4l5.4,7.4l-1.7,1.2l-5.4-7.4l-7.4,5.4L209.2,158.5z"/>
	<path class="st0" d="M110.7,274.4c-0.1-0.3-0.2-0.7-0.4-1.2c-0.2-0.4-0.5-0.8-0.8-1.2s-0.7-0.8-1.2-1.2c-0.4-0.4-0.9-0.7-1.5-1.1
		c-1.4-0.7-2.6-1.1-3.5-0.9s-1.6,0.7-2.1,1.6c-0.2,0.5-0.4,0.9-0.4,1.3s0.2,0.8,0.4,1.3c0.2,0.4,0.7,0.9,1.2,1.4
		c0.5,0.5,1.1,1.1,1.8,1.7c0.8,0.7,1.5,1.4,2.1,2.1c0.6,0.7,1.1,1.3,1.3,2.1c0.3,0.7,0.4,1.4,0.4,2.1c0,0.7-0.2,1.5-0.7,2.2
		c-0.5,0.8-1.1,1.5-1.7,1.9c-0.7,0.4-1.4,0.7-2.2,0.8c-0.8,0.1-1.6,0-2.6-0.2c-0.9-0.2-1.8-0.7-2.7-1.2c-1.4-0.7-2.6-1.7-3.5-2.8
		c-1-1.1-1.7-2.4-2.3-3.7l2.1-1.3c0.1,0.4,0.3,0.9,0.6,1.4c0.2,0.5,0.6,1.1,1,1.6c0.4,0.5,0.9,1.1,1.4,1.6c0.6,0.5,1.2,0.9,1.8,1.3
		c1.2,0.7,2.4,1.1,3.3,1c1-0.1,1.6-0.5,2.2-1.4c0.2-0.5,0.4-1,0.4-1.5s-0.2-1-0.5-1.5c-0.3-0.5-0.7-1-1.2-1.6
		c-0.5-0.6-1.2-1.2-1.9-1.8c-0.7-0.7-1.4-1.4-2-2.1c-0.6-0.7-0.9-1.2-1.2-1.9s-0.3-1.2-0.3-1.9c0.1-0.7,0.2-1.3,0.7-2
		c0.5-0.8,1.1-1.5,1.7-2s1.4-0.7,2.2-0.9c0.8-0.2,1.6-0.1,2.6,0.2c0.9,0.2,1.8,0.6,2.7,1.1c1.2,0.7,2.1,1.5,3,2.4
		c0.7,0.9,1.3,1.9,1.7,3L110.7,274.4z"/>
	<path class="st0" d="M112.1,292.2l5.4-19.7l2.5,0.7l-4.8,17.5l11,3l-0.6,2.2L112.1,292.2z"/>
	<path class="st0" d="M146.8,294.7l-0.1,2.3l-13.8-0.2l0.4-20.4l13.6,0.2l-0.1,2.3l-11-0.2l-0.2,6.6l9.6,0.2l-0.1,2.1l-9.6-0.2
		l-0.2,7L146.8,294.7z"/>
	<path class="st0" d="M167.8,290.7l0.5,2.2l-13.5,3.1l-4.6-19.8l13.3-3l0.5,2.2l-10.7,2.5l1.5,6.4l9.3-2.1l0.5,2.1l-9.3,2.1l1.6,6.8
		L167.8,290.7z"/>
	<path class="st0" d="M176.1,289.9l-9.5-18l7.5-4c0.8-0.4,1.6-0.7,2.5-0.7s1.6,0.1,2.4,0.4c0.7,0.3,1.5,0.7,2.1,1.2
		c0.7,0.6,1.2,1.2,1.5,1.9c0.4,0.7,0.7,1.6,0.7,2.4c0.1,0.8,0.1,1.6-0.1,2.4c-0.2,0.8-0.5,1.5-1,2.1c-0.5,0.7-1.2,1.2-1.9,1.6
		l-5.4,2.8l3.4,6.5L176.1,289.9z M173.9,280.1l5.3-2.8c0.5-0.2,0.8-0.6,1.2-1c0.2-0.4,0.5-0.8,0.6-1.3c0.1-0.5,0.1-1,0-1.6
		c-0.1-0.6-0.2-1.1-0.5-1.6c-0.2-0.5-0.7-1-1.1-1.3c-0.4-0.3-0.8-0.7-1.3-0.8s-1-0.2-1.5-0.2c-0.5,0-1,0.2-1.4,0.4l-5.1,2.7
		L173.9,280.1z"/>
	<path class="st0" d="M141,331c-17.5,0-34.6-3.5-50.6-10.2C75,314.2,61,304.8,49.1,292.9C37.2,281,27.8,267,21.3,251.6
		c-6.8-16-10.2-33-10.2-50.6s3.5-34.6,10.2-50.6c6.5-15.5,15.9-29.4,27.8-41.3S75,87.8,90.4,81.3c16.1-6.8,33-10.2,50.6-10.2
		s34.6,3.5,50.6,10.2c15.5,6.5,29.4,15.9,41.3,27.8s21.3,25.9,27.8,41.3c6.8,16.1,10.2,33,10.2,50.6s-3.5,34.6-10.2,50.6
		c-6.5,15.5-15.9,29.4-27.8,41.3c-11.9,11.9-25.9,21.3-41.3,27.8C175.6,327.6,158.5,331,141,331z M141,74.3
		c-17.1,0-33.7,3.4-49.3,10C76.6,90.6,63,99.8,51.4,111.4s-20.8,25.2-27.2,40.3c-6.6,15.6-10,32.2-10,49.3s3.4,33.7,10,49.3
		c6.4,15.1,15.6,28.7,27.2,40.3c11.6,11.6,25.2,20.8,40.3,27.2c15.6,6.6,32.2,10,49.3,10s33.7-3.4,49.3-10
		c15.1-6.4,28.7-15.6,40.3-27.2c11.6-11.6,20.8-25.2,27.2-40.3c6.6-15.6,10-32.2,10-49.3s-3.4-33.7-10-49.3
		c-6.4-15.1-15.6-28.7-27.2-40.3s-25.2-20.8-40.3-27.2C174.7,77.6,158.1,74.3,141,74.3z"/>
	<path class="st0" d="M141,341c-18.9,0-37.2-3.7-54.5-11c-16.6-7.1-31.6-17.1-44.5-30c-12.8-12.8-23-27.8-30-44.5
		C4.7,238.2,1,219.9,1,201s3.7-37.2,11-54.5c7.1-16.6,17.1-31.6,30-44.5s27.8-23,44.5-30c17.3-7.3,35.7-11,54.5-11s37.2,3.7,54.5,11
		c16.6,7.1,31.6,17.1,44.5,30c12.8,12.8,23,27.8,30,44.5c7.3,17.3,11,35.6,11,54.5s-3.7,37.2-11,54.5c-7.1,16.6-17.1,31.6-30,44.5
		c-12.8,12.8-27.8,23-44.5,30C178.2,337.3,159.9,341,141,341z M141,64.5c-18.4,0-36.3,3.6-53.1,10.7C71.6,82.1,57,91.9,44.5,104.5
		C32,117,22.1,131.7,15.2,147.9C8.2,164.7,4.5,182.6,4.5,201s3.6,36.3,10.7,53.1c6.9,16.2,16.7,30.9,29.2,43.4
		C57,310,71.7,319.9,87.9,326.8c16.8,7.1,34.8,10.7,53.1,10.7s36.3-3.6,53.1-10.7c16.2-6.9,30.9-16.7,43.4-29.2
		c12.5-12.5,22.4-27.2,29.2-43.4c7.1-16.8,10.7-34.8,10.7-53.1s-3.6-36.3-10.7-53.1c-6.9-16.2-16.7-30.9-29.2-43.4
		s-27.2-22.4-43.4-29.2C177.3,68.1,159.4,64.5,141,64.5z"/>
	<path class="st0" d="M141,86.8c-0.9,0-1.7-0.7-1.7-1.7V74.4c0-0.9,0.7-1.7,1.7-1.7c0.9,0,1.7,0.7,1.7,1.7V85
		C142.7,86,141.9,86.8,141,86.8z"/>
	<path class="st0" d="M141,329.3c-0.9,0-1.7-0.7-1.7-1.7V317c0-0.9,0.7-1.7,1.7-1.7c0.9,0,1.7,0.7,1.7,1.7v10.6
		C142.7,328.5,141.9,329.3,141,329.3z"/>
	<path class="st0" d="M267.6,202.7H257c-0.9,0-1.7-0.7-1.7-1.7s0.7-1.7,1.7-1.7h10.6c0.9,0,1.7,0.7,1.7,1.7S268.5,202.7,267.6,202.7
		z"/>
	<path class="st0" d="M25,202.7H14.4c-0.9,0-1.7-0.7-1.7-1.7s0.7-1.7,1.7-1.7H25c0.9,0,1.7,0.7,1.7,1.7S26,202.7,25,202.7z"/>
	<path class="st0" d="M83,102.3c-0.6,0-1.2-0.3-1.5-0.8l-5.3-9.2c-0.5-0.8-0.2-1.9,0.7-2.3c0.8-0.5,1.9-0.2,2.3,0.7l5.3,9.2
		c0.5,0.8,0.2,1.9-0.7,2.3C83.6,102.2,83.3,102.3,83,102.3z"/>
	<path class="st0" d="M204.3,312.3c-0.6,0-1.2-0.3-1.5-0.8l-5.3-9.2c-0.5-0.8-0.2-1.9,0.7-2.3c0.8-0.5,1.9-0.2,2.3,0.7l5.3,9.2
		c0.5,0.8,0.2,1.9-0.7,2.3C204.9,312.3,204.6,312.3,204.3,312.3z"/>
	<path class="st0" d="M241.4,144.8c-0.6,0-1.2-0.3-1.5-0.8c-0.5-0.8-0.2-1.9,0.7-2.3l9.2-5.3c0.8-0.5,1.9-0.2,2.3,0.7
		c0.5,0.8,0.2,1.9-0.7,2.3l-9.2,5.3C242,144.7,241.7,144.8,241.4,144.8z"/>
	<path class="st0" d="M31.4,266c-0.6,0-1.2-0.3-1.5-0.8c-0.5-0.8-0.2-1.9,0.7-2.3l9.2-5.3c0.8-0.5,1.9-0.2,2.3,0.7
		c0.5,0.8,0.2,1.9-0.7,2.3l-9.2,5.3C32,265.9,31.6,266,31.4,266z"/>
	<path class="st0" d="M40.6,144.8c-0.3,0-0.6-0.1-0.8-0.2l-9.2-5.3c-0.8-0.5-1.1-1.5-0.7-2.3c0.5-0.8,1.5-1.1,2.3-0.7l9.2,5.3
		c0.8,0.5,1.1,1.5,0.7,2.3C41.8,144.4,41.2,144.8,40.6,144.8z"/>
	<path class="st0" d="M250.6,266c-0.3,0-0.6-0.1-0.8-0.2l-9.2-5.3c-0.8-0.5-1.1-1.5-0.7-2.3c0.5-0.8,1.5-1.1,2.3-0.7l9.2,5.3
		c0.8,0.5,1.1,1.5,0.7,2.3C251.8,265.7,251.2,266,250.6,266z"/>
	<path class="st0" d="M199,102.3c-0.3,0-0.6-0.1-0.8-0.2c-0.8-0.5-1.1-1.5-0.7-2.3l5.3-9.2c0.5-0.8,1.5-1.1,2.3-0.7
		c0.8,0.5,1.1,1.5,0.7,2.3l-5.3,9.2C200.1,102,199.6,102.3,199,102.3z"/>
	<path class="st0" d="M77.7,312.3c-0.3,0-0.6-0.1-0.8-0.2c-0.8-0.5-1.1-1.5-0.7-2.3l5.3-9.2c0.5-0.8,1.5-1.1,2.3-0.7
		c0.8,0.5,1.1,1.5,0.7,2.3l-5.3,9.2C78.9,312,78.3,312.3,77.7,312.3z"/>
	<path class="st0" d="M171.6,90.9c-0.2,0-0.3,0-0.4-0.1c-0.9-0.2-1.5-1.2-1.2-2.1l2.8-10.2c0.2-0.9,1.2-1.5,2.1-1.2
		c0.9,0.2,1.5,1.2,1.2,2.1l-2.8,10.2C173,90.3,172.4,90.9,171.6,90.9z"/>
	<path class="st0" d="M107.6,324.8c-0.2,0-0.3,0-0.4-0.1c-0.9-0.2-1.5-1.2-1.2-2.1l2.8-10.2c0.2-0.9,1.2-1.5,2.1-1.2
		c0.9,0.2,1.5,1.2,1.2,2.1l-2.8,10.2C109,324.3,108.4,324.8,107.6,324.8z"/>
	<path class="st0" d="M263.1,236.1c-0.2,0-0.3,0-0.4-0.1l-10.2-2.8c-0.9-0.2-1.5-1.2-1.2-2.1c0.2-0.9,1.2-1.5,2.1-1.2l10.2,2.8
		c0.9,0.2,1.5,1.2,1.2,2.1C264.5,235.6,263.9,236.1,263.1,236.1z"/>
	<path class="st0" d="M29.2,172.1c-0.2,0-0.3,0-0.4-0.1l-10.2-2.8c-0.9-0.2-1.5-1.2-1.2-2.1s1.2-1.5,2.1-1.2l10.2,2.8
		c0.9,0.2,1.5,1.2,1.2,2.1C30.6,171.6,29.9,172.1,29.2,172.1z"/>
	<path class="st0" d="M111.6,90.6c-0.7,0-1.5-0.5-1.6-1.2L107.2,79c-0.2-0.9,0.3-1.8,1.2-2.1c0.9-0.2,1.8,0.3,2.1,1.2l2.7,10.3
		c0.2,0.9-0.3,1.8-1.2,2.1C111.8,90.6,111.7,90.6,111.6,90.6z"/>
	<path class="st0" d="M173.1,325.1c-0.7,0-1.5-0.5-1.6-1.2l-2.7-10.3c-0.2-0.9,0.3-1.8,1.2-2.1c0.9-0.2,1.8,0.3,2.1,1.2l2.7,10.3
		c0.2,0.9-0.3,1.8-1.2,2.1C173.4,325.1,173.3,325.1,173.1,325.1z"/>
	<path class="st0" d="M253.2,173.2c-0.7,0-1.5-0.5-1.6-1.2c-0.2-0.9,0.3-1.8,1.2-2.1l10.3-2.7c0.9-0.2,1.8,0.3,2.1,1.2
		c0.2,0.9-0.3,1.8-1.2,2.1l-10.3,2.7C253.4,173.2,253.3,173.2,253.2,173.2z"/>
	<path class="st0" d="M18.5,234.8c-0.7,0-1.5-0.5-1.6-1.2c-0.2-0.9,0.3-1.8,1.2-2.1l10.3-2.7c0.9-0.2,1.8,0.3,2.1,1.2
		c0.2,0.9-0.3,1.8-1.2,2.1L19,234.8C18.9,234.8,18.7,234.8,18.5,234.8z"/>
	<path class="st0" d="M59.4,120.3c-0.4,0-0.9-0.2-1.2-0.5l-7.5-7.6c-0.7-0.7-0.7-1.7,0-2.4c0.7-0.7,1.7-0.7,2.4,0l7.5,7.6
		c0.7,0.7,0.7,1.7,0,2.4C60.3,120.1,59.9,120.3,59.4,120.3z"/>
	<path class="st0" d="M230,292.7c-0.4,0-0.9-0.2-1.2-0.5l-7.5-7.6c-0.7-0.7-0.7-1.7,0-2.4s1.7-0.7,2.4,0l7.5,7.6
		c0.7,0.7,0.7,1.7,0,2.4C230.9,292.5,230.4,292.7,230,292.7z"/>
	<path class="st0" d="M223.4,121.1c-0.4,0-0.9-0.2-1.2-0.5c-0.7-0.7-0.7-1.7,0-2.4l7.6-7.5c0.7-0.7,1.7-0.7,2.4,0
		c0.7,0.7,0.7,1.7,0,2.4l-7.6,7.5C224.3,121,223.8,121.1,223.4,121.1z"/>
	<path class="st0" d="M51.1,291.8c-0.4,0-0.9-0.2-1.2-0.5c-0.7-0.7-0.7-1.7,0-2.4l7.6-7.5c0.7-0.7,1.7-0.7,2.4,0
		c0.7,0.7,0.7,1.7,0,2.4l-7.6,7.5C51.9,291.6,51.5,291.8,51.1,291.8z"/>
	<path class="st0" d="M168.5,234.6c-19.8,3.1-38.5-10.3-41.6-30.1c-3.1-19.8,10.3-38.5,30.1-41.6c2.9-0.5,5.7-0.6,8.5-0.3
		c-7.3-3.4-15.7-4.7-24.4-3.3c-23.1,3.7-39,25.4-35.2,48.6c3.7,23.1,25.4,39,48.6,35.2c8.6-1.4,16.1-5.3,22.1-10.7
		C174.1,233.4,171.3,234.2,168.5,234.6z"/>
	<path class="st0" d="M81,272.2c-1.2,0-2.4-0.4-3.3-1.3c-19.3-17.4-30.3-42.2-30.3-68.2c0-11.8,2.2-23.2,6.5-34
		c1-2.6,3.9-3.8,6.4-2.8c2.6,1,3.8,3.9,2.8,6.4c-3.9,9.6-5.8,19.8-5.8,30.3c0,23.1,9.9,45.4,27,60.9c2.1,1.8,2.1,4.9,0.3,7
		C83.6,271.7,82.3,272.2,81,272.2z"/>
	<path class="st0" d="M198.1,271.8c-1.3,0-2.6-0.6-3.6-1.6c-1.8-2-1.7-5.1,0.3-7c17-15.5,26.6-37.6,26.6-60.5
		c0-8.7-1.4-17.4-4.1-25.6c-0.8-2.6,0.6-5.4,3.1-6.3c2.6-0.8,5.4,0.6,6.3,3.1c3,9.2,4.6,18.9,4.6,28.7c0,25.7-10.9,50.4-29.8,67.8
		C200.5,271.4,199.3,271.8,198.1,271.8z"/>
</g>
</svg>
