<?xml version="1.0" encoding="utf-8"?>
<!-- Generator: Adobe Illustrator 19.0.0, SVG Export Plug-In . SVG Version: 6.00 Build 0)  -->
<svg version="1.1" id="Layer_1" xmlns="http://www.w3.org/2000/svg" xmlns:xlink="http://www.w3.org/1999/xlink" x="0px" y="0px"
	 width="280px" height="280px" viewBox="-59 61 280 280" style="enable-background:new -59 61 280 280;" xml:space="preserve">
<style type="text/css">
	.st0{fill:#FFFFFF;}
	.st1{fill:none;stroke:#FFFFFF;stroke-width:2.9459;stroke-linecap:round;stroke-linejoin:round;stroke-miterlimit:10;}
</style>
<g>
	<path class="st0" d="M10.7,137.5c-0.4,0-0.8,0-1.2,0.1c-0.4,0.1-0.9,0.2-1.4,0.4c-0.5,0.2-1,0.5-1.4,0.8c-0.5,0.3-0.9,0.7-1.4,1.1
		c-1.1,1.1-1.7,2.2-1.8,3.1c-0.1,0.9,0.2,1.8,1,2.5c0.4,0.4,0.8,0.6,1.2,0.7c0.4,0.1,0.9,0.1,1.4-0.1c0.5-0.1,1.1-0.4,1.7-0.7
		c0.6-0.3,1.3-0.8,2.1-1.3c0.9-0.6,1.8-1.1,2.6-1.5c0.8-0.4,1.6-0.7,2.3-0.8c0.7-0.1,1.4-0.1,2.1,0.1c0.7,0.2,1.3,0.6,2,1.3
		c0.7,0.7,1.2,1.4,1.4,2.2c0.2,0.8,0.3,1.6,0.2,2.4s-0.4,1.6-0.9,2.4c-0.5,0.8-1.1,1.6-1.8,2.3c-1.1,1.1-2.3,2-3.7,2.7
		s-2.7,1.1-4.2,1.2l-0.7-2.4c0.4,0,1,0,1.5-0.2c0.6-0.1,1.2-0.3,1.8-0.6c0.6-0.3,1.2-0.6,1.9-1c0.6-0.4,1.2-0.9,1.8-1.4
		c1-1,1.6-2,1.8-3c0.2-0.9-0.1-1.8-0.8-2.5c-0.4-0.4-0.8-0.6-1.3-0.7s-1-0.1-1.5,0.1c-0.6,0.2-1.2,0.4-1.8,0.8
		c-0.7,0.4-1.4,0.8-2.2,1.3c-0.9,0.6-1.7,1-2.5,1.4c-0.8,0.4-1.5,0.6-2.1,0.7c-0.7,0.1-1.3,0-1.9-0.2c-0.6-0.2-1.2-0.6-1.8-1.2
		c-0.7-0.7-1.2-1.4-1.5-2.2c-0.3-0.8-0.4-1.6-0.3-2.4c0.1-0.8,0.4-1.7,0.8-2.5c0.4-0.8,1-1.6,1.8-2.4c1-1,2-1.7,3.1-2.2
		s2.2-0.8,3.3-0.9L10.7,137.5z"/>
	<path class="st0" d="M19.8,137c-0.7-1-1.2-2.2-1.5-3.4c-0.3-1.3-0.4-2.5-0.2-3.8c0.2-1.3,0.6-2.5,1.3-3.6s1.7-2.2,2.9-3
		c1.5-1,3.1-1.5,4.6-1.5c1.5,0,2.9,0.3,4.2,1.1l-1,2.2c-0.6-0.4-1.2-0.6-1.8-0.8c-0.6-0.1-1.2-0.2-1.8-0.1c-0.6,0.1-1.1,0.2-1.6,0.4
		s-1,0.4-1.4,0.7c-0.9,0.6-1.7,1.4-2.1,2.2c-0.5,0.9-0.7,1.8-0.8,2.7c-0.1,1,0,1.9,0.3,2.9c0.3,1,0.7,1.8,1.2,2.6
		c0.6,0.9,1.3,1.7,2.1,2.3s1.7,1.1,2.6,1.3c0.9,0.3,1.9,0.4,2.9,0.3s1.9-0.4,2.7-1c0.4-0.3,0.9-0.7,1.3-1.1c0.4-0.4,0.7-0.9,1-1.4
		c0.3-0.5,0.5-1.1,0.6-1.7s0.1-1.3,0-2l2.4-0.2c0.1,0.8,0.1,1.6,0,2.4c-0.2,0.8-0.5,1.6-0.8,2.3c-0.4,0.7-0.9,1.4-1.5,2.1
		c-0.6,0.6-1.2,1.2-1.8,1.6c-1.2,0.8-2.4,1.2-3.7,1.3c-1.3,0.1-2.6,0-3.8-0.3c-1.3-0.4-2.4-0.9-3.5-1.7
		C21.4,139,20.5,138.1,19.8,137z"/>
	<path class="st0" d="M44,134.6L35.7,116l2.4-1.1l8.3,18.6L44,134.6z"/>
	<path class="st0" d="M64.2,125.4l0.6,2.2l-13.3,3.7l-5.4-19.7l13.1-3.6l0.6,2.2l-10.6,2.9l1.8,6.4l9.2-2.5l0.6,2.1l-9.2,2.5
		l1.9,6.8L64.2,125.4z"/>
	<path class="st0" d="M70.6,111.3l0.6,15.6l-2.6,0.1l-0.8-20.4l2-0.1l13.3,15.3L82.5,106l2.6-0.1l0.8,20.3l-2.2,0.1L70.6,111.3z"/>
	<path class="st0" d="M91.7,116.4c0.2-1.2,0.7-2.4,1.3-3.5c0.7-1.1,1.5-2.1,2.5-2.8c1-0.8,2.2-1.4,3.5-1.7c1.3-0.3,2.7-0.4,4.2-0.1
		c1.8,0.4,3.2,1.1,4.4,2.1c1.1,1.1,1.9,2.3,2.2,3.7l-2.3,0.9c-0.2-0.7-0.4-1.3-0.8-1.8c-0.3-0.5-0.7-1-1.2-1.3
		c-0.4-0.4-0.9-0.7-1.4-0.9s-1-0.4-1.5-0.5c-1.1-0.2-2.1-0.2-3.1,0.1c-0.9,0.3-1.8,0.7-2.5,1.4c-0.7,0.6-1.3,1.4-1.8,2.2
		s-0.8,1.8-1,2.7c-0.2,1.1-0.2,2.1-0.1,3.1s0.5,2,1,2.8s1.1,1.6,1.9,2.2c0.8,0.6,1.6,1,2.6,1.2c0.5,0.1,1.1,0.1,1.7,0.1
		c0.6,0,1.2-0.1,1.7-0.3c0.6-0.2,1.1-0.5,1.6-0.8c0.5-0.4,1-0.8,1.4-1.4l1.9,1.6c-0.5,0.7-1,1.3-1.7,1.7c-0.7,0.5-1.4,0.8-2.2,1.1
		c-0.8,0.3-1.6,0.4-2.5,0.4c-0.8,0-1.7,0-2.4-0.2c-1.4-0.3-2.6-0.8-3.6-1.7c-1-0.8-1.9-1.8-2.5-2.9c-0.6-1.1-1.1-2.4-1.3-3.7
		C91.5,118.9,91.5,117.6,91.7,116.4z"/>
	<path class="st0" d="M124.1,134.8l-0.9,2.1l-12.7-5.5l8.2-18.7l12.5,5.4l-0.9,2.1l-10.1-4.4l-2.6,6.1l8.8,3.8l-0.9,2l-8.8-3.8
		l-2.8,6.4L124.1,134.8z"/>
	<path class="st0" d="M139.5,149c-1.1-1-1.9-2-2.3-3.3s-0.7-2.5-0.7-3.8s0.3-2.5,0.8-3.8c0.5-1.2,1.2-2.3,2-3.3c0.9-1,2-1.8,3.1-2.4
		c1.2-0.6,2.4-1,3.7-1.1c1.3-0.1,2.5,0,3.8,0.3c1.3,0.4,2.4,1,3.4,1.9c1.1,1,1.8,2,2.3,3.3c0.5,1.2,0.7,2.5,0.7,3.8
		c0,1.3-0.3,2.5-0.8,3.8c-0.5,1.2-1.1,2.3-2,3.3c-0.9,1-2,1.8-3.1,2.4c-1.2,0.6-2.4,1-3.7,1.1c-1.3,0.1-2.5,0-3.8-0.3
		C141.7,150.5,140.6,149.9,139.5,149z M141.2,136.6c-0.7,0.8-1.2,1.6-1.6,2.6c-0.4,0.9-0.6,1.9-0.7,2.9c0,1,0.1,1.9,0.5,2.8
		c0.3,0.9,0.9,1.7,1.7,2.4c0.8,0.7,1.7,1.2,2.7,1.4c1,0.2,1.9,0.3,2.9,0.1c1-0.2,1.9-0.5,2.7-1c0.9-0.5,1.6-1.1,2.3-1.8
		c0.7-0.8,1.2-1.6,1.6-2.6s0.6-1.9,0.6-2.9c0-1-0.1-1.9-0.5-2.8c-0.3-0.9-0.9-1.7-1.7-2.4c-0.8-0.7-1.7-1.2-2.6-1.4
		c-0.9-0.2-1.9-0.3-2.8-0.1s-1.9,0.5-2.7,1S141.9,135.9,141.2,136.6z"/>
	<path class="st0" d="M149.2,158.5l16.6-11.9l7.8,10.9l-1.9,1.3l-6.3-8.8l-5.5,4l5.3,7.4l-1.8,1.3l-5.3-7.4l-7.4,5.3L149.2,158.5z"
		/>
</g>
<g>
	<path class="st0" d="M50.6,274.3c-0.1-0.3-0.2-0.7-0.4-1.1c-0.2-0.4-0.5-0.8-0.8-1.2c-0.3-0.4-0.7-0.8-1.1-1.2
		c-0.4-0.4-0.9-0.7-1.4-1c-1.4-0.8-2.5-1.1-3.5-0.9c-0.9,0.2-1.7,0.7-2.2,1.6c-0.3,0.5-0.4,0.9-0.4,1.4c0,0.4,0.1,0.9,0.4,1.3
		c0.3,0.4,0.6,0.9,1.1,1.4c0.5,0.5,1.1,1.1,1.8,1.7c0.8,0.7,1.5,1.4,2.1,2.1c0.6,0.7,1,1.4,1.4,2c0.3,0.7,0.4,1.4,0.4,2.1
		c0,0.7-0.3,1.5-0.7,2.3c-0.5,0.8-1.1,1.5-1.8,1.9c-0.7,0.4-1.4,0.7-2.2,0.8c-0.8,0.1-1.7,0-2.5-0.3c-0.9-0.3-1.8-0.6-2.7-1.2
		c-1.4-0.8-2.5-1.7-3.5-2.8c-1-1.1-1.7-2.4-2.3-3.7l2.1-1.3c0.1,0.4,0.3,0.9,0.6,1.4c0.3,0.5,0.6,1.1,1,1.6s0.9,1,1.4,1.5
		c0.5,0.5,1.2,0.9,1.8,1.3c1.3,0.7,2.4,1,3.3,1s1.7-0.5,2.2-1.4c0.3-0.5,0.4-1,0.4-1.5c0-0.5-0.2-1-0.5-1.4c-0.3-0.5-0.7-1-1.2-1.6
		c-0.5-0.6-1.2-1.2-1.9-1.8c-0.8-0.7-1.4-1.4-2-2c-0.5-0.6-0.9-1.3-1.2-1.9S38,272,38,271.4s0.3-1.3,0.7-2c0.5-0.9,1.1-1.5,1.7-2
		c0.7-0.5,1.4-0.8,2.3-0.9s1.7-0.1,2.6,0.1c0.9,0.2,1.8,0.6,2.7,1.1c1.2,0.7,2.2,1.5,2.9,2.4s1.3,1.9,1.7,2.9L50.6,274.3z"/>
	<path class="st0" d="M52.1,292.2l5.4-19.7l2.5,0.7l-4.8,17.5l11,3l-0.6,2.2L52.1,292.2z"/>
	<path class="st0" d="M86.9,294.7l0,2.3L73,296.7l0.4-20.4l13.6,0.3l0,2.3l-11-0.2l-0.1,6.6l9.6,0.2l0,2.2l-9.6-0.2l-0.1,7
		L86.9,294.7z"/>
	<path class="st0" d="M107.9,290.6l0.5,2.2L94.9,296l-4.6-19.9l13.2-3.1l0.5,2.2l-10.7,2.5l1.5,6.4l9.3-2.2l0.5,2.1l-9.3,2.2
		l1.6,6.9L107.9,290.6z"/>
	<path class="st0" d="M116.1,289.9l-9.5-18.1l7.5-4c0.8-0.4,1.6-0.6,2.5-0.7c0.8,0,1.7,0.1,2.4,0.4s1.5,0.7,2.1,1.3s1.1,1.2,1.5,1.9
		c0.4,0.7,0.6,1.5,0.8,2.4c0.1,0.8,0.1,1.6-0.1,2.4c-0.2,0.8-0.5,1.5-1,2.2s-1.1,1.2-1.9,1.6l-5.4,2.8l3.4,6.5L116.1,289.9z
		 M113.9,280.1l5.3-2.8c0.5-0.2,0.9-0.6,1.1-1c0.3-0.4,0.5-0.8,0.6-1.3c0.1-0.5,0.1-1,0-1.5c-0.1-0.5-0.3-1.1-0.5-1.6
		c-0.3-0.5-0.6-1-1-1.3c-0.4-0.4-0.9-0.6-1.3-0.8c-0.5-0.2-1-0.3-1.5-0.2s-1,0.2-1.4,0.4l-5.1,2.7L113.9,280.1z"/>
</g>
<path class="st0" d="M81,331c-17.5,0-34.6-3.4-50.6-10.2c-15.5-6.5-29.4-15.9-41.3-27.9c-11.9-11.9-21.3-25.8-27.9-41.3
	c-6.8-16-10.2-33-10.2-50.6s3.4-34.6,10.2-50.6c6.5-15.5,15.9-29.4,27.9-41.3C1,97.2,14.9,87.8,30.4,81.2C46.4,74.5,63.5,71,81,71
	c17.5,0,34.6,3.4,50.6,10.2c15.5,6.5,29.4,15.9,41.3,27.9c11.9,11.9,21.3,25.8,27.9,41.3c6.8,16,10.2,33,10.2,50.6
	s-3.4,34.6-10.2,50.6c-6.5,15.5-15.9,29.4-27.9,41.3c-11.9,11.9-25.8,21.3-41.3,27.9C115.6,327.5,98.5,331,81,331z M81,74.2
	c-17.1,0-33.7,3.4-49.3,10C16.6,90.6,3,99.7-8.6,111.4c-11.6,11.6-20.8,25.2-27.2,40.3c-6.6,15.6-10,32.2-10,49.3s3.4,33.7,10,49.3
	c6.4,15.1,15.5,28.7,27.2,40.3c11.6,11.6,25.2,20.8,40.3,27.2c15.6,6.6,32.2,10,49.3,10c17.1,0,33.7-3.4,49.3-10
	c15.1-6.4,28.7-15.5,40.3-27.2c11.6-11.6,20.8-25.2,27.2-40.3c6.6-15.6,10-32.2,10-49.3s-3.4-33.7-10-49.3
	c-6.4-15.1-15.5-28.7-27.2-40.3c-11.6-11.6-25.2-20.8-40.3-27.2C114.7,77.6,98.1,74.2,81,74.2z"/>
<path class="st0" d="M81,341c-18.9,0-37.2-3.7-54.5-11C9.8,322.9-5.1,312.9-18,300c-12.9-12.9-23-27.8-30-44.5
	c-7.3-17.3-11-35.6-11-54.5s3.7-37.2,11-54.5c7.1-16.7,17.1-31.6,30-44.5c12.9-12.9,27.8-23,44.5-30C43.8,64.7,62.1,61,81,61
	c18.9,0,37.2,3.7,54.5,11c16.7,7.1,31.6,17.1,44.5,30c12.9,12.9,23,27.8,30,44.5c7.3,17.3,11,35.6,11,54.5s-3.7,37.2-11,54.5
	c-7.1,16.7-17.1,31.6-30,44.5c-12.9,12.9-27.8,23-44.5,30C118.2,337.3,99.9,341,81,341z M81,64.5c-18.4,0-36.3,3.6-53.1,10.7
	C11.6,82.1-3,91.9-15.6,104.4c-12.5,12.5-22.4,27.1-29.3,43.4c-7.1,16.8-10.7,34.7-10.7,53.1s3.6,36.3,10.7,53.1
	c6.9,16.3,16.7,30.9,29.3,43.4c12.5,12.5,27.1,22.4,43.4,29.3c16.8,7.1,34.7,10.7,53.1,10.7s36.3-3.6,53.1-10.7
	c16.3-6.9,30.9-16.7,43.4-29.3c12.5-12.5,22.4-27.1,29.3-43.4c7.1-16.8,10.7-34.7,10.7-53.1s-3.6-36.3-10.7-53.1
	c-6.9-16.3-16.7-30.9-29.3-43.4c-12.5-12.5-27.1-22.4-43.4-29.3C117.3,68.1,99.4,64.5,81,64.5z"/>
<path class="st0" d="M81,86.7c-0.9,0-1.7-0.8-1.7-1.7V74.4c0-0.9,0.8-1.7,1.7-1.7c0.9,0,1.7,0.8,1.7,1.7V85
	C82.7,86,81.9,86.7,81,86.7z"/>
<path class="st0" d="M81,329.3c-0.9,0-1.7-0.8-1.7-1.7V317c0-0.9,0.8-1.7,1.7-1.7c0.9,0,1.7,0.8,1.7,1.7v10.6
	C82.7,328.5,81.9,329.3,81,329.3z"/>
<path class="st0" d="M207.6,202.7H197c-0.9,0-1.7-0.8-1.7-1.7s0.8-1.7,1.7-1.7h10.6c0.9,0,1.7,0.8,1.7,1.7S208.5,202.7,207.6,202.7z
	"/>
<path class="st0" d="M-35,202.7h-10.6c-0.9,0-1.7-0.8-1.7-1.7s0.8-1.7,1.7-1.7H-35c0.9,0,1.7,0.8,1.7,1.7S-34,202.7-35,202.7z"/>
<path class="st0" d="M23,102.3c-0.6,0-1.2-0.3-1.5-0.9l-5.3-9.2c-0.5-0.8-0.2-1.9,0.6-2.3c0.8-0.5,1.9-0.2,2.3,0.6l5.3,9.2
	c0.5,0.8,0.2,1.9-0.6,2.3C23.6,102.2,23.3,102.3,23,102.3z"/>
<path class="st0" d="M144.3,312.3c-0.6,0-1.2-0.3-1.5-0.9l-5.3-9.2c-0.5-0.8-0.2-1.9,0.6-2.3c0.8-0.5,1.9-0.2,2.3,0.6l5.3,9.2
	c0.5,0.8,0.2,1.9-0.6,2.3C144.9,312.3,144.6,312.3,144.3,312.3z"/>
<path class="st0" d="M181.4,144.7c-0.6,0-1.2-0.3-1.5-0.9c-0.5-0.8-0.2-1.9,0.6-2.3l9.2-5.3c0.8-0.5,1.9-0.2,2.3,0.6
	c0.5,0.8,0.2,1.9-0.6,2.3l-9.2,5.3C182,144.7,181.7,144.7,181.4,144.7z"/>
<path class="st0" d="M-28.6,266c-0.6,0-1.2-0.3-1.5-0.9c-0.5-0.8-0.2-1.9,0.6-2.3l9.2-5.3c0.8-0.5,1.9-0.2,2.3,0.6
	c0.5,0.8,0.2,1.9-0.6,2.3l-9.2,5.3C-28,265.9-28.3,266-28.6,266z"/>
<path class="st0" d="M-19.4,144.7c-0.3,0-0.6-0.1-0.9-0.2l-9.2-5.3c-0.8-0.5-1.1-1.5-0.6-2.3c0.5-0.8,1.5-1.1,2.3-0.6l9.2,5.3
	c0.8,0.5,1.1,1.5,0.6,2.3C-18.3,144.4-18.8,144.7-19.4,144.7z"/>
<path class="st0" d="M190.6,266c-0.3,0-0.6-0.1-0.9-0.2l-9.2-5.3c-0.8-0.5-1.1-1.5-0.6-2.3c0.5-0.8,1.5-1.1,2.3-0.6l9.2,5.3
	c0.8,0.5,1.1,1.5,0.6,2.3C191.8,265.7,191.2,266,190.6,266z"/>
<path class="st0" d="M139,102.3c-0.3,0-0.6-0.1-0.9-0.2c-0.8-0.5-1.1-1.5-0.6-2.3l5.3-9.2c0.5-0.8,1.5-1.1,2.3-0.6
	c0.8,0.5,1.1,1.5,0.6,2.3l-5.3,9.2C140.1,102,139.6,102.3,139,102.3z"/>
<path class="st0" d="M17.7,312.3c-0.3,0-0.6-0.1-0.9-0.2c-0.8-0.5-1.1-1.5-0.6-2.3l5.3-9.2c0.5-0.8,1.5-1.1,2.3-0.6
	c0.8,0.5,1.1,1.5,0.6,2.3l-5.3,9.2C18.9,312,18.3,312.3,17.7,312.3z"/>
<path class="st0" d="M111.6,90.9c-0.1,0-0.3,0-0.5-0.1c-0.9-0.2-1.4-1.2-1.2-2.1l2.8-10.2c0.2-0.9,1.2-1.4,2.1-1.2
	c0.9,0.2,1.4,1.2,1.2,2.1l-2.8,10.2C113,90.4,112.3,90.9,111.6,90.9z"/>
<path class="st0" d="M47.6,324.8c-0.1,0-0.3,0-0.5-0.1c-0.9-0.2-1.4-1.2-1.2-2.1l2.8-10.2c0.2-0.9,1.2-1.4,2.1-1.2
	c0.9,0.2,1.4,1.2,1.2,2.1l-2.8,10.2C49,324.3,48.4,324.8,47.6,324.8z"/>
<path class="st0" d="M203.1,236.1c-0.1,0-0.3,0-0.5-0.1l-10.2-2.8c-0.9-0.2-1.4-1.2-1.2-2.1c0.2-0.9,1.2-1.4,2.1-1.2l10.2,2.8
	c0.9,0.2,1.4,1.2,1.2,2.1C204.5,235.6,203.8,236.1,203.1,236.1z"/>
<path class="st0" d="M-30.9,172.1c-0.1,0-0.3,0-0.5-0.1l-10.2-2.8c-0.9-0.2-1.4-1.2-1.2-2.1c0.2-0.9,1.2-1.4,2.1-1.2l10.2,2.8
	c0.9,0.2,1.4,1.2,1.2,2.1C-29.4,171.6-30.1,172.1-30.9,172.1z"/>
<path class="st0" d="M51.6,90.5c-0.8,0-1.4-0.5-1.7-1.3L47.2,79c-0.2-0.9,0.3-1.8,1.2-2.1c0.9-0.2,1.8,0.3,2.1,1.2l2.7,10.3
	c0.2,0.9-0.3,1.8-1.2,2.1C51.9,90.5,51.7,90.5,51.6,90.5z"/>
<path class="st0" d="M113.1,325.1c-0.8,0-1.4-0.5-1.7-1.3l-2.7-10.3c-0.2-0.9,0.3-1.8,1.2-2.1c0.9-0.2,1.8,0.3,2.1,1.2l2.7,10.3
	c0.2,0.9-0.3,1.8-1.2,2.1C113.4,325.1,113.3,325.1,113.1,325.1z"/>
<path class="st0" d="M193.2,173.3c-0.8,0-1.4-0.5-1.7-1.3c-0.2-0.9,0.3-1.8,1.2-2.1l10.3-2.7c0.9-0.2,1.8,0.3,2.1,1.2
	c0.2,0.9-0.3,1.8-1.2,2.1l-10.3,2.7C193.5,173.3,193.3,173.3,193.2,173.3z"/>
<path class="st0" d="M-41.4,234.8c-0.8,0-1.4-0.5-1.7-1.3c-0.2-0.9,0.3-1.8,1.2-2.1l10.3-2.7c0.9-0.2,1.8,0.3,2.1,1.2
	c0.2,0.9-0.3,1.8-1.2,2.1l-10.3,2.7C-41.1,234.8-41.3,234.8-41.4,234.8z"/>
<path class="st0" d="M-0.6,120.3c-0.4,0-0.9-0.2-1.2-0.5l-7.5-7.5c-0.7-0.7-0.7-1.8,0-2.4c0.7-0.7,1.8-0.7,2.4,0l7.5,7.5
	c0.7,0.7,0.7,1.8,0,2.4C0.3,120.1-0.1,120.3-0.6,120.3z"/>
<path class="st0" d="M170,292.7c-0.4,0-0.9-0.2-1.2-0.5l-7.5-7.5c-0.7-0.7-0.7-1.8,0-2.4c0.7-0.7,1.8-0.7,2.4,0l7.5,7.5
	c0.7,0.7,0.7,1.8,0,2.4C170.9,292.5,170.5,292.7,170,292.7z"/>
<path class="st0" d="M163.4,121.1c-0.4,0-0.9-0.2-1.2-0.5c-0.7-0.7-0.7-1.8,0-2.4l7.5-7.5c0.7-0.7,1.8-0.7,2.4,0
	c0.7,0.7,0.7,1.8,0,2.4l-7.5,7.5C164.3,121,163.9,121.1,163.4,121.1z"/>
<path class="st0" d="M-9,291.7c-0.4,0-0.9-0.2-1.2-0.5c-0.7-0.7-0.7-1.8,0-2.4l7.5-7.5c0.7-0.7,1.8-0.7,2.4,0c0.7,0.7,0.7,1.8,0,2.4
	l-7.5,7.5C-8.1,291.6-8.5,291.7-9,291.7z"/>
<path class="st0" d="M108.5,234.6c-19.8,3.2-38.4-10.3-41.6-30.1C63.7,184.7,77.2,166,97,162.9c2.9-0.5,5.7-0.6,8.5-0.4
	c-7.4-3.4-15.8-4.7-24.3-3.3c-23.1,3.7-38.9,25.5-35.2,48.6c3.7,23.1,25.5,38.9,48.6,35.2c8.6-1.4,16.2-5.2,22.1-10.7
	C114.1,233.4,111.3,234.2,108.5,234.6z"/>
<path class="st1" d="M20.9,267.3C3.3,251.3-7.7,228.3-7.7,202.7c0-11.4,2.2-22.2,6.1-32.2"/>
<path class="st1" d="M162,175.5c2.8,8.6,4.3,17.7,4.3,27.2c0,25.4-10.9,48.3-28.2,64.2"/>
</svg>
